<?xml version="1.0" encoding="utf-8"?>

<!DOCTYPE svg PUBLIC "-//W3C//DTD SVG 1.1//EN" "http://www.w3.org/Graphics/SVG/1.1/DTD/svg11.dtd">
<!-- Uploaded to: SVG Repo, www.svgrepo.com, Generator: SVG Repo Mixer Tools -->
<svg height="800px" width="800px" version="1.1" id="_x32_" xmlns="http://www.w3.org/2000/svg" xmlns:xlink="http://www.w3.org/1999/xlink" 
	 viewBox="0 0 512 512"  xml:space="preserve">
<style type="text/css">
	.st0{fill:#000000;}
</style>
<g>
	<path class="st0" d="M478.024,176.264h-33.49V159.21c-0.01-18.782-15.212-33.976-33.977-33.985h-84.034v92.5H185.478v-92.5h-84.035
		c-18.763,0.01-33.967,15.203-33.976,33.985v17.054h-33.49C15.212,176.273,0.008,191.467,0,210.249v91.52
		c0.008,18.763,15.212,33.967,33.976,33.976h33.49v17.044c0.009,18.782,15.212,33.976,33.976,33.986h84.035v-9.569v-82.932h141.045
		v92.501h9.569h74.465c18.764-0.01,33.967-15.204,33.977-33.986v-17.044h33.49c18.763-0.01,33.967-15.213,33.976-33.976v-91.52
		C511.99,191.467,496.787,176.273,478.024,176.264z M67.467,316.608h-33.49c-8.186-0.019-14.821-6.654-14.839-14.839v-91.52
		c0.018-8.204,6.653-14.839,14.839-14.848h33.49V316.608z M166.34,367.638h-64.898c-8.185-0.019-14.82-6.644-14.838-14.848V159.21
		c0.018-8.204,6.653-14.838,14.838-14.848h64.898V367.638z M326.522,275.137H185.478v-38.275h141.045V275.137z M425.396,352.789
		c-0.019,8.204-6.653,14.83-14.839,14.848H345.66V144.362h64.896c8.186,0.01,14.82,6.644,14.839,14.848V352.789z M492.863,301.769
		c-0.019,8.185-6.653,14.82-14.839,14.839h-33.49V195.401h33.49c8.186,0.008,14.82,6.644,14.839,14.848V301.769z"/>
</g>
</svg>