<?xml version='1.0' encoding='iso-8859-1'?>
<!DOCTYPE svg PUBLIC '-//W3C//DTD SVG 1.1//EN' 'http://www.w3.org/Graphics/SVG/1.1/DTD/svg11.dtd'>
<!-- Uploaded to: SVG Repo, www.svgrepo.com, Generator: SVG Repo Mixer Tools -->
<svg fill="#000000" height="800px" width="800px" version="1.1" xmlns="http://www.w3.org/2000/svg" viewBox="0 0 403.767 403.767" xmlns:xlink="http://www.w3.org/1999/xlink" enable-background="new 0 0 403.767 403.767">
  <path d="m376.622,361.293l-68.038-88.083 38.323-13.289c2.717-0.942 4.656-3.354 4.992-6.211 0.335-2.856-0.992-5.652-3.416-7.199l-67.297-42.918c8.639-15.28 14.157-31.936 16.427-49.619 4.646-36.181-5.076-72.004-27.375-100.872-22.298-28.867-54.504-47.323-90.685-51.968s-72.003,5.077-100.871,27.375c-28.867,22.298-47.323,54.504-51.968,90.685-4.646,36.181 5.076,72.004 27.375,100.872 22.298,28.867 54.504,47.323 90.685,51.968 5.912,0.759 11.802,1.138 17.66,1.138 11.665,0 23.198-1.527 34.491-4.521l24.533,75.98c0.883,2.736 3.254,4.727 6.102,5.124 2.85,0.396 5.673-0.871 7.271-3.261l22.539-33.725 68.039,88.083c1.216,1.574 3.008,2.601 4.98,2.854 0.318,0.041 0.638,0.061 0.955,0.061 1.65,0 3.265-0.545 4.585-1.564l39.342-30.39c3.279-2.532 3.883-7.242 1.351-10.52zm-229.938-104.137c-32.207-4.135-60.875-20.563-80.725-46.26-19.849-25.696-28.503-57.585-24.368-89.792s20.564-60.875 46.261-80.724c25.696-19.85 57.587-28.505 89.791-24.368 32.207,4.135 60.875,20.563 80.725,46.26 19.849,25.696 28.503,57.585 24.368,89.792-1.986,15.471-6.769,30.05-14.224,43.447l-18.921-12.066c7.71-14.351 11.76-30.404 11.76-46.865 0-54.688-44.497-99.18-99.19-99.18-54.687,0-99.18,44.492-99.18,99.18 0,54.694 44.492,99.19 99.18,99.19 7.88,0 15.674-0.927 23.259-2.753l6.894,21.352c-14.846,3.829-30.158,4.774-45.63,2.787zm8.342-118.268l25.766,79.796c-6.084,1.377-12.322,2.085-18.631,2.085-46.417,0-84.18-37.768-84.18-84.19 0-46.417 37.763-84.18 84.18-84.18 46.423,0 84.19,37.763 84.19,84.18 0,13.594-3.258,26.851-9.455,38.769l-70.701-45.088c-2.667-1.7-6.115-1.545-8.618,0.388-2.502,1.934-3.524,5.23-2.551,8.24zm177.669,246.859l-69.83-90.402c-1.423-1.842-3.617-2.915-5.935-2.915-0.086,0-0.172,0.001-0.258,0.004-2.412,0.083-4.638,1.321-5.979,3.328l-19.724,29.512-55.266-171.159 151.646,96.71-33.536,11.629c-2.28,0.791-4.041,2.63-4.73,4.944-0.689,2.313-0.224,4.816 1.252,6.727l69.829,90.402-27.469,21.22z"/>
</svg>