<?xml version="1.0" standalone="no"?>
<!DOCTYPE svg PUBLIC "-//W3C//DTD SVG 20010904//EN"
 "http://www.w3.org/TR/2001/REC-SVG-20010904/DTD/svg10.dtd">
<svg version="1.0" xmlns="http://www.w3.org/2000/svg"
 width="1375.000000pt" height="3583.000000pt" viewBox="0 0 1375.000000 3583.000000"
 preserveAspectRatio="xMidYMid meet">

<g transform="translate(0.000000,3583.000000) scale(0.100000,-0.100000)"
fill="#000000" stroke="none">
<path d="M6480 34580 c-47 -5 -102 -16 -122 -24 -21 -9 -45 -16 -54 -16 -30 0
-159 -63 -242 -118 -142 -93 -322 -286 -406 -433 -50 -88 -100 -191 -128 -264
-16 -44 -37 -96 -44 -115 -8 -19 -22 -62 -30 -95 -15 -57 -22 -89 -58 -260 -8
-38 -23 -167 -32 -285 -14 -184 -15 -239 -5 -380 20 -269 30 -365 39 -391 5
-13 12 -51 16 -84 16 -144 136 -576 192 -688 8 -16 14 -34 14 -40 0 -6 9 -29
19 -51 57 -123 68 -155 64 -179 -5 -27 9 -101 32 -172 19 -57 45 -167 60 -255
7 -41 18 -86 23 -100 5 -15 13 -57 17 -95 4 -39 14 -90 22 -115 7 -25 16 -108
20 -186 l6 -140 -49 -36 c-27 -20 -60 -48 -74 -63 -14 -15 -45 -36 -70 -47
-25 -11 -70 -39 -100 -62 -30 -24 -69 -50 -87 -60 -17 -9 -38 -24 -45 -35 -17
-24 -98 -85 -157 -119 -27 -15 -77 -47 -112 -72 -80 -57 -120 -81 -189 -115
-30 -15 -64 -36 -75 -46 -11 -9 -49 -32 -85 -50 -36 -18 -83 -44 -105 -59 -22
-14 -71 -41 -110 -59 -38 -17 -78 -36 -87 -41 -9 -5 -59 -25 -110 -45 -51 -19
-101 -40 -110 -45 -10 -5 -34 -14 -55 -19 -21 -5 -58 -17 -83 -25 -90 -31
-176 -55 -220 -61 -25 -4 -65 -13 -90 -20 -25 -7 -97 -25 -160 -39 -63 -15
-137 -33 -165 -41 -27 -8 -79 -19 -115 -24 -36 -5 -81 -16 -100 -24 -20 -9
-69 -19 -110 -23 -41 -4 -84 -13 -95 -20 -11 -8 -29 -14 -40 -14 -20 0 -102
-22 -220 -61 -33 -10 -69 -19 -79 -19 -10 0 -61 -20 -113 -45 -51 -25 -100
-45 -108 -45 -7 0 -16 -4 -19 -9 -4 -5 -37 -26 -74 -47 -240 -134 -503 -373
-675 -616 -51 -71 -87 -127 -87 -135 0 -4 -6 -14 -14 -22 -14 -16 -124 -230
-165 -321 -34 -76 -75 -197 -103 -305 -6 -22 -18 -67 -28 -100 -10 -33 -21
-87 -25 -120 -3 -33 -13 -100 -22 -150 -12 -73 -14 -154 -10 -435 3 -190 10
-385 16 -435 15 -120 34 -456 33 -580 0 -55 -1 -145 -1 -200 -1 -126 -19 -350
-33 -393 -5 -18 -16 -69 -23 -115 -12 -78 -23 -126 -65 -297 -26 -102 -40
-165 -51 -230 -6 -30 -17 -84 -25 -120 -15 -62 -32 -214 -54 -455 -23 -256 6
-745 54 -930 9 -32 16 -71 16 -86 0 -14 7 -48 15 -75 8 -27 20 -80 26 -117 6
-38 17 -84 25 -103 8 -18 14 -46 14 -61 1 -15 8 -46 16 -68 9 -22 21 -65 28
-95 7 -30 17 -64 23 -75 15 -30 26 -172 23 -329 -1 -112 -5 -147 -20 -175 -9
-20 -21 -56 -25 -81 -4 -25 -13 -67 -20 -95 -8 -27 -17 -84 -20 -125 -4 -41
-13 -113 -21 -160 -20 -123 -33 -473 -23 -630 4 -74 8 -182 8 -240 1 -58 5
-120 11 -139 5 -18 14 -79 20 -135 6 -55 17 -123 25 -151 7 -27 17 -77 21
-110 3 -33 11 -71 16 -85 6 -14 16 -61 23 -105 7 -44 20 -109 28 -145 30 -126
56 -256 63 -305 3 -27 10 -58 15 -67 5 -9 14 -52 19 -95 6 -43 17 -98 25 -123
7 -25 16 -73 20 -108 3 -34 12 -79 19 -100 7 -20 16 -64 20 -97 4 -33 13 -82
21 -110 7 -27 18 -90 25 -139 6 -49 15 -97 20 -107 5 -9 13 -43 16 -75 4 -33
13 -75 21 -94 8 -19 20 -79 28 -132 7 -54 21 -108 29 -120 21 -29 20 -61 -1
-101 -15 -30 -37 -114 -64 -247 -6 -30 -19 -95 -29 -145 -10 -49 -24 -137 -30
-195 -6 -58 -18 -159 -25 -225 -7 -66 -18 -142 -25 -170 -6 -27 -15 -87 -20
-132 -5 -45 -15 -94 -23 -110 -8 -15 -20 -73 -27 -128 -6 -55 -20 -127 -32
-159 -22 -65 -19 -153 7 -211 16 -35 41 -101 61 -165 8 -25 20 -58 25 -75 6
-16 17 -63 24 -103 8 -40 18 -79 23 -85 6 -7 15 -46 21 -87 7 -41 18 -82 26
-90 11 -12 15 -41 15 -98 l0 -81 53 -56 c37 -38 61 -55 79 -55 33 0 55 -26 67
-82 14 -59 50 -116 79 -124 13 -4 53 1 90 10 76 19 77 18 86 -64 5 -44 13 -63
35 -84 26 -25 34 -27 97 -24 l69 3 6 37 c8 49 41 75 106 83 48 6 56 11 110 71
78 87 82 106 75 341 -6 221 -3 230 69 250 24 6 54 22 66 35 23 25 73 148 73
180 0 11 9 40 20 66 31 74 40 260 29 559 -5 142 -14 287 -19 323 -17 118 -30
203 -50 320 -66 382 -67 384 -46 427 20 42 31 152 18 172 -15 21 -63 -7 -85
-49 -29 -57 -15 -273 33 -505 10 -49 21 -115 24 -147 3 -31 13 -84 22 -118 14
-56 14 -64 -2 -106 -15 -40 -16 -57 -6 -152 22 -209 20 -554 -5 -727 -15 -106
-20 -123 -45 -148 l-28 -28 -29 20 c-26 19 -30 28 -36 101 -4 44 -4 124 -1
178 3 53 2 221 -2 372 l-7 275 -24 3 c-13 2 -28 -2 -32 -10 -13 -19 -11 -272
2 -324 9 -34 9 -51 0 -71 -8 -18 -13 -173 -17 -522 -4 -471 -6 -500 -27 -575
-21 -77 -49 -114 -78 -104 -7 2 -22 35 -35 73 -21 66 -23 92 -29 425 -5 287
-10 374 -25 455 -10 55 -22 117 -25 137 -5 30 -11 39 -31 44 -14 4 -28 4 -31
0 -12 -12 -5 -100 12 -161 14 -49 18 -119 21 -390 3 -209 10 -378 20 -462 16
-137 14 -168 -17 -240 -14 -33 -24 -43 -42 -43 -13 0 -31 8 -40 18 -42 46 -67
280 -67 620 0 222 -23 489 -47 539 -15 32 -37 48 -54 37 -13 -8 -10 -69 7
-149 11 -52 17 -169 23 -450 4 -209 6 -385 4 -391 -7 -19 -67 -46 -93 -43 -43
7 -70 70 -70 169 0 47 -7 126 -16 175 -8 50 -19 164 -23 255 -6 101 -15 184
-25 215 -9 28 -16 78 -16 113 0 68 -18 115 -50 132 -24 13 -37 -9 -46 -73 -5
-33 -1 -56 16 -93 15 -35 24 -82 31 -161 5 -64 17 -138 29 -172 18 -54 19 -75
14 -173 -6 -89 -11 -115 -26 -130 -25 -25 -42 -23 -77 13 -30 29 -31 34 -31
115 0 58 -5 95 -16 116 -8 16 -19 64 -24 107 -4 42 -12 87 -18 101 -5 14 -13
53 -17 88 -7 61 -40 189 -69 267 -12 32 -14 76 -10 215 3 96 10 188 15 204 5
16 9 49 9 73 0 34 6 49 25 67 24 23 25 26 25 171 0 116 3 152 15 165 8 8 19
49 26 89 6 41 17 91 24 111 7 21 16 68 20 106 4 38 13 85 20 105 7 20 16 67
20 105 3 38 14 94 22 124 9 30 16 89 17 130 0 66 3 77 23 93 26 21 30 62 9 92
-24 35 -89 295 -111 450 -8 50 -18 102 -23 116 -6 14 -13 56 -17 94 -4 39 -13
86 -20 105 -7 20 -16 60 -19 90 -4 30 -15 93 -26 140 -10 47 -24 111 -29 143
-28 146 -34 178 -53 267 -11 52 -28 133 -38 180 -32 146 -51 242 -65 325 -7
44 -18 91 -23 105 -6 15 -13 57 -17 95 -4 39 -13 99 -21 134 -22 99 -47 469
-40 601 19 370 28 493 40 565 8 44 17 115 21 157 3 43 12 99 20 125 8 26 15
81 15 121 0 54 5 83 21 113 15 30 20 61 21 117 1 144 -2 182 -16 205 -8 12
-17 42 -21 67 -3 25 -15 71 -26 103 -10 31 -19 65 -19 75 0 10 -6 26 -14 37
-21 30 -36 91 -46 185 -14 129 -29 222 -40 250 -6 14 -17 79 -25 145 -9 66
-20 145 -25 175 -11 71 -12 643 0 735 4 39 15 130 24 204 9 73 20 141 25 150
5 9 14 52 20 94 6 43 17 99 25 125 22 76 47 182 61 257 7 39 17 81 23 95 5 14
13 54 17 90 4 36 14 85 22 110 18 54 37 339 34 505 -2 66 3 155 10 197 11 67
10 79 -4 101 -8 13 -18 53 -22 88 -3 35 -13 129 -22 209 -23 215 -24 901 -1
985 9 33 19 85 23 115 7 56 21 110 71 260 52 160 72 218 83 236 6 11 22 46 37
79 66 147 186 336 311 492 102 126 307 309 456 407 121 79 344 180 487 221 25
7 66 19 90 28 25 8 76 18 114 22 38 4 83 13 100 20 17 7 67 21 111 30 44 10
114 26 155 37 41 10 108 25 148 33 40 8 82 20 93 26 12 6 58 13 103 16 44 3
88 11 96 18 8 7 42 20 75 29 208 57 384 113 465 148 150 64 384 179 436 214
29 18 63 38 77 43 14 6 48 25 74 43 26 19 71 47 98 62 28 16 106 66 175 111
69 46 147 94 173 108 66 36 165 107 223 162 27 26 63 53 79 62 17 9 47 31 68
49 20 19 40 34 45 34 4 0 20 12 36 27 l29 26 -7 136 c-4 75 -12 154 -18 176
-5 22 -16 83 -24 135 -15 105 -47 234 -62 253 -15 18 -62 304 -62 378 0 21 -9
58 -19 81 -10 24 -29 68 -42 98 -12 30 -30 73 -39 95 -57 137 -113 310 -146
455 -8 36 -21 83 -28 105 -7 22 -17 69 -20 103 -4 35 -12 76 -17 90 -6 15 -17
92 -25 172 -8 80 -19 186 -24 235 -14 138 -12 258 10 463 37 347 99 574 226
827 104 205 268 398 425 501 70 46 184 104 204 104 9 0 30 7 47 16 41 21 276
47 364 40 66 -5 73 -4 93 18 l23 24 -24 13 c-28 16 -202 20 -318 9z"/>
<path d="M6977 34580 c-50 -9 -54 -16 -27 -45 21 -23 27 -24 99 -19 92 7 318
-19 360 -40 16 -9 36 -16 44 -16 35 0 187 -89 276 -160 177 -144 314 -334 414
-575 44 -107 67 -170 67 -183 0 -6 9 -38 19 -69 11 -32 23 -78 26 -103 4 -25
13 -67 20 -95 8 -27 16 -86 20 -130 3 -44 11 -116 16 -160 14 -101 14 -377 0
-481 -5 -43 -13 -119 -16 -169 -4 -49 -13 -117 -21 -150 -8 -33 -18 -91 -24
-130 -5 -38 -16 -88 -25 -110 -8 -22 -14 -51 -15 -65 0 -14 -9 -52 -20 -85
-19 -59 -38 -118 -65 -205 -26 -87 -56 -165 -65 -174 -6 -6 -10 -17 -10 -25 0
-9 -11 -38 -25 -66 -13 -27 -25 -57 -25 -65 0 -9 -7 -25 -15 -37 -17 -24 -35
-104 -64 -283 -11 -63 -24 -126 -29 -140 -5 -14 -13 -51 -17 -84 -3 -32 -12
-75 -19 -95 -7 -20 -16 -66 -20 -103 -4 -37 -14 -91 -22 -120 -7 -29 -17 -123
-20 -208 l-7 -156 33 -37 c21 -24 41 -37 58 -37 24 0 86 -36 164 -96 20 -16
53 -40 73 -54 20 -14 42 -29 48 -35 41 -33 416 -282 482 -319 17 -10 47 -27
67 -39 140 -83 298 -170 383 -211 55 -26 107 -52 116 -56 19 -10 160 -64 234
-90 28 -10 66 -23 85 -30 19 -7 53 -17 75 -22 22 -6 63 -17 90 -26 49 -15 79
-22 263 -62 52 -11 98 -22 103 -25 5 -3 39 -12 76 -20 66 -13 130 -27 283 -65
169 -41 256 -61 270 -60 51 1 378 -118 499 -182 219 -116 472 -327 633 -528
113 -141 247 -369 321 -545 53 -128 66 -161 72 -198 4 -20 11 -39 15 -42 5 -3
14 -31 20 -63 6 -31 17 -73 24 -92 8 -19 17 -62 21 -95 4 -33 14 -89 23 -125
22 -90 21 -715 -1 -940 -9 -85 -19 -188 -23 -229 -3 -41 -13 -89 -20 -107 -10
-25 -11 -45 -4 -85 6 -28 10 -117 10 -198 0 -181 17 -452 31 -506 6 -22 17
-76 24 -120 12 -73 26 -138 57 -265 47 -191 63 -268 98 -450 33 -176 50 -403
50 -665 -1 -149 -5 -301 -10 -340 -6 -38 -17 -119 -24 -180 -8 -60 -21 -137
-30 -170 -9 -32 -16 -68 -16 -80 1 -24 -55 -267 -95 -410 -9 -33 -22 -84 -29
-112 -7 -29 -18 -58 -23 -65 -18 -22 -25 -75 -14 -114 8 -27 7 -41 -2 -55 -17
-23 -2 -180 20 -224 8 -16 18 -70 23 -120 4 -49 13 -102 19 -117 5 -15 15 -80
21 -145 5 -65 15 -136 20 -158 13 -57 34 -443 33 -615 -2 -175 -20 -413 -38
-495 -7 -33 -16 -91 -20 -130 -4 -38 -11 -80 -17 -95 -5 -14 -16 -61 -23 -105
-18 -109 -52 -275 -104 -501 -12 -50 -21 -102 -21 -115 0 -13 -9 -56 -20 -94
-11 -38 -20 -84 -20 -101 0 -16 -9 -64 -19 -105 -10 -41 -22 -100 -26 -133 -4
-32 -13 -75 -20 -96 -7 -20 -16 -68 -20 -106 -4 -38 -13 -85 -20 -104 -7 -20
-16 -69 -20 -110 -4 -41 -13 -93 -21 -115 -7 -22 -17 -67 -23 -100 -5 -34 -23
-102 -40 -152 -34 -102 -37 -129 -17 -158 7 -11 16 -45 20 -75 4 -30 13 -77
21 -105 7 -27 17 -81 20 -119 4 -38 13 -85 20 -105 7 -20 16 -67 20 -105 4
-38 13 -85 20 -106 7 -20 18 -70 24 -111 7 -40 18 -80 26 -89 8 -9 16 -53 21
-112 4 -55 11 -98 17 -98 17 0 -12 368 -44 545 -6 33 -15 85 -21 115 -5 30
-14 75 -19 100 -21 92 -48 206 -56 240 -5 19 -6 49 -1 65 4 17 13 55 19 85 6
30 20 82 30 114 11 33 19 72 19 86 0 14 9 60 19 101 10 41 22 101 26 134 3 33
13 83 20 110 8 28 17 75 20 105 4 30 13 75 20 100 8 25 19 79 24 120 6 41 17
100 26 130 8 30 15 68 15 85 0 16 9 62 20 100 11 38 20 81 20 94 0 22 13 85
56 266 9 39 22 106 29 150 7 44 17 91 23 105 5 14 12 52 16 85 4 33 14 81 21
107 8 26 17 80 20 120 4 40 13 109 22 152 23 123 24 842 1 986 -9 58 -20 137
-23 175 -3 39 -12 93 -20 120 -7 28 -17 73 -21 100 -3 28 -14 66 -24 85 -10
19 -20 53 -23 75 -9 61 19 433 36 485 36 108 57 182 57 206 0 13 6 40 14 58 8
19 19 65 25 103 6 37 18 90 26 117 8 27 15 60 15 73 0 13 9 63 19 111 23 101
48 346 57 547 8 187 -29 672 -60 790 -9 32 -16 73 -16 91 0 17 -9 60 -20 94
-11 34 -20 72 -20 84 0 11 -9 53 -19 91 -31 112 -52 204 -67 290 -7 44 -17 96
-23 115 -32 111 -54 672 -33 825 6 44 16 157 22 250 6 94 15 215 20 270 15
160 12 599 -4 696 -8 46 -17 113 -21 149 -4 36 -13 83 -20 105 -7 22 -16 56
-20 75 -10 53 -57 199 -106 328 -22 59 -105 229 -143 294 -62 107 -100 168
-134 214 -20 28 -46 64 -57 79 -54 75 -191 217 -301 313 -80 69 -273 205 -338
237 -28 14 -58 29 -66 35 -88 53 -356 144 -520 176 -41 8 -88 19 -105 24 -16
5 -61 16 -100 24 -146 31 -212 46 -260 60 -62 19 -174 45 -240 57 -91 17 -289
71 -440 119 -150 49 -165 54 -300 115 -111 50 -191 91 -359 188 -105 60 -200
114 -211 121 -21 11 -136 87 -277 181 -86 57 -121 82 -248 175 -42 30 -112 80
-157 110 -51 34 -87 66 -94 83 -15 37 -5 281 15 354 8 29 17 80 21 115 4 35
12 74 17 88 6 14 16 59 23 100 15 85 38 185 66 280 11 36 19 89 19 118 0 32 7
68 19 90 30 60 57 122 86 202 25 68 36 98 75 210 15 44 45 159 70 268 11 46
22 87 25 91 3 5 10 44 15 87 6 44 17 106 25 139 22 97 39 438 31 645 -13 334
-31 444 -123 740 -15 47 -30 92 -34 100 -5 8 -25 53 -45 99 -111 254 -285 469
-499 617 -65 44 -164 90 -270 124 -106 33 -338 50 -438 30z"/>
<path d="M3220 25196 c-9 -12 -9 -53 0 -183 27 -399 29 -477 30 -838 0 -617
-29 -1269 -63 -1415 -9 -36 -20 -90 -26 -120 -13 -70 -50 -226 -96 -400 -16
-61 -41 -183 -56 -275 -5 -33 -17 -100 -26 -150 -29 -151 -17 -316 34 -465 8
-25 18 -67 23 -95 4 -27 13 -62 18 -76 6 -15 16 -74 22 -130 6 -57 18 -131 26
-164 8 -33 19 -112 24 -175 6 -63 16 -140 22 -170 15 -68 14 -547 -1 -705 -6
-60 -15 -182 -21 -270 -6 -88 -17 -194 -25 -235 -7 -41 -17 -106 -20 -145 -4
-38 -13 -95 -20 -125 -7 -30 -16 -84 -20 -120 -3 -36 -12 -87 -20 -115 -7 -27
-18 -90 -25 -138 -6 -48 -15 -98 -19 -111 -5 -12 -14 -63 -20 -114 -6 -50 -16
-104 -21 -118 -6 -15 -15 -61 -21 -103 -5 -42 -16 -94 -24 -116 -8 -22 -17
-71 -20 -110 -4 -38 -11 -80 -17 -95 -5 -14 -16 -56 -23 -95 -7 -38 -20 -101
-29 -140 -42 -177 -48 -214 -42 -238 5 -22 10 -25 29 -18 30 11 44 44 69 158
11 54 26 121 33 148 8 28 16 75 20 105 3 30 15 84 26 120 11 36 24 94 29 130
15 112 39 252 49 284 6 17 15 73 22 125 6 52 15 106 21 120 5 14 14 61 19 106
6 44 16 103 24 130 7 28 16 82 20 120 4 39 13 95 20 125 7 30 16 89 20 130 3
41 13 113 20 160 16 92 44 535 52 821 4 129 1 205 -10 290 -9 63 -19 157 -23
209 -3 52 -10 105 -15 117 -4 12 -13 62 -19 110 -25 200 -67 375 -115 479 -33
70 -28 269 9 444 8 36 19 97 25 135 16 100 70 341 96 425 8 25 18 68 24 95 5
28 16 79 24 115 48 207 55 273 67 620 24 691 30 1031 20 1231 -21 421 -23 526
-11 533 6 4 11 1 11 -6 0 -7 14 -40 30 -73 16 -33 30 -66 30 -73 0 -8 7 -26
15 -40 8 -15 21 -45 29 -67 8 -22 26 -71 40 -110 15 -38 33 -88 41 -110 7 -22
25 -71 40 -110 14 -38 33 -88 40 -110 8 -22 26 -71 41 -110 14 -38 32 -92 40
-120 8 -27 21 -64 29 -82 8 -17 15 -38 15 -46 0 -8 8 -39 19 -69 10 -29 28
-84 39 -123 12 -38 28 -92 37 -120 9 -27 22 -75 30 -105 8 -30 21 -77 30 -105
15 -46 38 -124 65 -220 13 -45 43 -157 60 -225 6 -25 20 -79 31 -120 10 -41
21 -93 25 -115 3 -22 12 -60 19 -85 8 -25 17 -70 20 -100 4 -30 13 -80 20
-110 8 -30 18 -96 24 -146 6 -50 15 -104 21 -120 5 -16 14 -81 20 -144 6 -63
15 -135 20 -160 5 -25 14 -169 20 -320 6 -151 16 -405 22 -565 16 -384 15
-882 -1 -1005 -8 -52 -15 -190 -16 -307 -2 -183 -5 -220 -24 -275 -11 -34 -29
-94 -40 -133 -47 -166 -72 -252 -82 -280 -6 -16 -19 -59 -30 -95 -11 -36 -29
-93 -40 -127 -49 -161 -62 -202 -80 -263 -44 -154 -59 -220 -68 -305 -5 -49
-15 -103 -21 -120 -7 -16 -21 -66 -31 -110 -17 -79 -35 -137 -71 -227 -10 -26
-18 -55 -18 -65 -1 -10 -9 -36 -20 -58 -11 -22 -19 -47 -20 -57 0 -9 -9 -40
-19 -70 -11 -29 -32 -93 -46 -143 -15 -49 -33 -106 -41 -125 -7 -19 -18 -53
-24 -75 -5 -22 -21 -80 -35 -130 -57 -196 -157 -627 -170 -730 -4 -27 -13 -81
-21 -120 -7 -38 -18 -122 -24 -186 -5 -64 -14 -140 -20 -168 -5 -29 -14 -143
-20 -254 -6 -111 -16 -240 -23 -287 -17 -118 -17 -1146 0 -1245 7 -38 17 -133
23 -210 6 -77 17 -171 24 -210 8 -38 17 -106 21 -150 3 -44 11 -98 17 -120 6
-22 16 -83 23 -135 13 -95 30 -187 65 -355 10 -49 23 -112 29 -140 5 -27 15
-75 21 -105 7 -30 20 -89 30 -130 10 -41 21 -95 25 -119 4 -24 13 -58 20 -75
7 -17 16 -53 20 -81 4 -27 13 -61 20 -75 7 -14 16 -48 20 -75 4 -28 13 -61 20
-75 8 -14 18 -48 23 -75 6 -28 18 -72 27 -100 9 -27 25 -81 37 -120 19 -67 34
-112 72 -220 25 -72 39 -145 33 -181 -5 -28 9 -470 19 -609 2 -33 5 -94 7
-135 3 -55 9 -85 25 -110 22 -36 40 -126 48 -231 2 -32 8 -68 13 -82 9 -24 5
-71 -18 -187 -25 -129 -43 -231 -56 -318 -7 -51 -18 -107 -24 -125 -5 -17 -15
-72 -21 -120 -6 -48 -15 -99 -20 -112 -16 -42 -33 -267 -32 -430 0 -250 21
-719 37 -840 7 -60 17 -150 20 -200 4 -49 11 -107 16 -128 6 -21 17 -91 24
-155 18 -150 42 -300 60 -382 8 -36 19 -99 25 -140 5 -41 16 -106 25 -145 8
-38 15 -88 15 -110 0 -22 9 -94 19 -160 11 -66 22 -170 26 -232 3 -61 10 -126
15 -145 6 -18 15 -82 21 -143 6 -60 17 -137 24 -170 7 -33 16 -94 20 -135 4
-41 13 -100 20 -130 7 -30 16 -86 20 -125 3 -38 13 -106 21 -150 8 -44 21
-156 29 -250 16 -185 28 -265 55 -365 10 -36 21 -94 25 -128 3 -35 11 -75 16
-89 5 -14 14 -60 20 -102 5 -42 16 -96 24 -121 8 -25 17 -72 21 -105 4 -33 11
-71 16 -85 6 -14 16 -70 23 -125 14 -103 27 -173 50 -282 12 -52 12 -81 0
-187 -8 -70 -22 -152 -31 -184 -35 -122 -67 -219 -85 -258 -10 -22 -19 -46
-19 -52 0 -6 -10 -33 -21 -59 -38 -84 -47 -107 -79 -183 -18 -41 -40 -94 -51
-117 -31 -69 -58 -130 -80 -181 -11 -26 -26 -60 -34 -77 -7 -16 -46 -104 -86
-195 -39 -91 -77 -176 -85 -190 -7 -14 -21 -45 -32 -70 -52 -118 -74 -167 -88
-192 -30 -56 -44 -109 -34 -129 22 -40 49 -13 103 106 16 33 36 78 47 100 10
22 30 65 43 95 14 30 39 87 57 125 18 39 48 106 67 150 32 73 49 112 88 200 8
17 23 51 34 78 21 46 43 96 80 179 18 41 36 84 96 228 14 36 30 74 35 85 13
29 55 142 75 200 9 28 23 79 30 115 8 36 19 79 25 95 6 17 16 95 22 175 10
124 9 163 -6 260 -9 63 -25 149 -37 190 -11 41 -27 102 -35 135 -8 33 -21 83
-29 110 -8 28 -17 79 -21 115 -4 36 -11 76 -16 90 -5 14 -21 99 -34 190 -38
263 -52 343 -62 370 -5 14 -12 68 -16 120 -4 52 -11 114 -16 137 -6 23 -14 86
-20 140 -6 54 -17 127 -24 163 -8 36 -17 99 -21 140 -4 41 -13 100 -20 130 -8
30 -18 105 -24 165 -6 61 -15 126 -21 145 -5 19 -14 100 -20 178 -6 79 -14
163 -20 185 -5 23 -14 98 -20 165 -6 68 -15 134 -20 146 -4 13 -14 67 -20 121
-6 54 -16 109 -20 121 -5 13 -14 63 -20 111 -7 48 -18 113 -25 143 -7 30 -16
91 -20 135 -3 44 -13 107 -20 140 -7 33 -17 101 -20 150 -4 50 -13 128 -20
175 -8 47 -16 139 -19 205 -3 66 -13 259 -23 428 -18 321 -18 303 17 630 6 49
16 112 24 140 8 29 18 83 21 122 4 38 11 80 17 94 5 14 15 71 23 127 8 56 19
112 23 125 5 13 12 51 16 84 4 33 14 92 22 131 17 75 18 67 -21 324 -9 58 -13
119 -10 137 3 19 -2 55 -15 92 -11 33 -20 77 -20 98 0 21 -7 58 -16 83 -20 57
-32 500 -16 570 10 40 8 51 -19 111 -16 37 -29 73 -29 80 0 8 -8 36 -19 64
-27 73 -50 143 -66 200 -8 28 -23 82 -34 120 -11 39 -27 97 -36 130 -9 33 -24
89 -34 125 -39 135 -71 269 -121 505 -11 50 -28 131 -39 180 -11 50 -23 113
-27 140 -3 28 -12 73 -19 100 -8 28 -17 77 -20 110 -4 33 -13 89 -21 125 -7
36 -18 110 -24 165 -6 55 -15 116 -20 135 -5 19 -14 94 -20 165 -6 72 -15 153
-20 180 -5 28 -15 194 -21 370 -13 331 -1 965 21 1100 5 33 14 143 20 245 5
102 16 223 24 270 8 47 17 121 21 165 4 44 13 105 20 135 7 30 17 82 21 115 4
33 13 76 20 96 7 20 15 63 19 95 4 33 14 74 21 92 7 18 16 57 20 85 4 29 13
67 20 85 7 18 18 60 24 93 6 34 15 69 21 78 5 9 15 43 23 76 8 33 19 74 25 90
18 51 42 128 56 180 15 55 40 133 56 180 6 17 19 57 29 90 10 33 23 76 30 95
47 135 68 201 111 350 12 41 29 102 40 135 10 33 22 87 28 120 5 33 14 73 20
88 7 18 8 42 2 66 -4 21 -5 45 -1 52 4 8 11 30 15 49 4 19 16 54 26 77 11 23
19 50 19 60 0 10 9 36 19 58 10 22 21 58 25 80 4 22 11 45 16 50 4 6 15 37 25
70 9 33 25 90 35 127 10 37 23 75 28 85 5 10 13 37 17 61 4 24 16 69 27 100
13 38 21 90 23 154 2 53 9 107 16 120 8 15 16 96 21 228 4 113 12 252 18 310
6 58 13 225 17 372 6 247 5 269 -12 294 -16 25 -18 48 -16 174 2 208 -17 785
-28 850 -6 30 -15 111 -21 180 -6 69 -17 152 -25 185 -7 33 -16 89 -20 125 -3
36 -12 90 -20 120 -7 30 -17 82 -20 115 -4 33 -13 83 -21 110 -7 28 -21 84
-29 125 -9 41 -24 111 -35 155 -10 44 -26 109 -34 144 -8 35 -19 75 -25 90 -6
14 -17 53 -25 86 -8 33 -19 74 -25 90 -10 27 -26 84 -82 280 -11 39 -25 84
-30 100 -6 17 -17 55 -25 85 -7 30 -18 64 -23 75 -5 11 -23 67 -41 125 -18 58
-36 114 -41 125 -5 11 -15 40 -23 65 -8 25 -26 77 -41 115 -14 39 -33 88 -40
110 -8 22 -26 72 -40 110 -15 39 -33 90 -41 115 -8 25 -20 59 -28 75 -16 35
-51 129 -62 165 -3 14 -13 34 -20 45 -8 11 -14 26 -14 35 0 8 -11 38 -25 65
-13 28 -25 56 -25 63 0 24 -49 109 -65 116 -29 11 -72 6 -85 -8z"/>
<path d="M10438 25198 c-23 -19 -42 -59 -98 -208 -29 -74 -58 -148 -66 -165
-8 -16 -18 -43 -24 -60 -8 -28 -18 -55 -86 -235 -14 -36 -31 -83 -39 -105 -7
-22 -25 -71 -39 -110 -14 -38 -40 -113 -57 -165 -18 -52 -40 -117 -49 -145
-10 -27 -28 -84 -40 -125 -43 -141 -59 -195 -75 -245 -9 -27 -22 -75 -30 -105
-14 -55 -36 -127 -57 -185 -6 -16 -16 -55 -23 -85 -7 -30 -19 -77 -28 -105
-30 -102 -64 -239 -92 -375 -8 -41 -22 -97 -29 -125 -8 -27 -17 -77 -21 -110
-3 -33 -12 -82 -20 -110 -7 -27 -16 -81 -20 -120 -4 -38 -13 -98 -21 -132 -7
-34 -18 -113 -24 -175 -6 -62 -15 -139 -21 -170 -11 -66 -28 -541 -29 -828 -1
-155 -4 -199 -15 -214 -18 -24 -20 -330 -5 -566 29 -446 39 -541 57 -577 44
-90 61 -29 44 166 -28 328 -32 423 -28 662 9 537 42 1370 57 1434 5 22 14 87
20 145 6 58 17 132 24 165 8 33 18 94 22 135 3 41 12 90 19 110 7 19 16 66 20
104 4 38 13 85 20 105 7 20 16 61 20 91 4 30 12 66 17 80 5 14 18 61 28 105
28 119 74 287 125 455 32 106 62 209 79 277 8 28 17 57 22 64 4 7 13 36 20 63
7 28 20 71 29 96 8 25 38 113 65 195 67 203 90 268 100 280 4 6 10 24 14 40 7
31 47 137 72 192 8 17 14 36 14 43 0 7 6 26 14 43 19 41 62 155 71 187 4 14
16 35 26 48 10 13 21 36 24 53 4 17 11 26 17 23 11 -7 10 -36 -13 -479 -12
-243 -7 -646 16 -1220 15 -382 22 -476 35 -511 5 -12 14 -57 20 -100 6 -43 17
-101 25 -129 18 -65 43 -167 56 -230 5 -27 16 -70 24 -95 16 -49 41 -170 56
-265 6 -33 20 -109 31 -170 29 -149 28 -353 -2 -419 -11 -25 -20 -49 -20 -53
0 -5 -8 -24 -19 -43 -10 -19 -22 -60 -26 -90 -4 -30 -13 -77 -20 -105 -7 -27
-16 -81 -20 -120 -3 -38 -12 -95 -20 -125 -8 -30 -17 -95 -20 -145 -4 -49 -13
-137 -22 -195 -12 -83 -14 -154 -10 -340 7 -261 41 -773 56 -835 5 -22 12 -76
16 -120 3 -44 13 -105 20 -135 7 -30 16 -86 20 -125 4 -38 13 -92 20 -120 8
-27 19 -89 25 -138 6 -48 15 -99 20 -112 5 -14 15 -67 21 -117 6 -51 15 -103
20 -116 5 -14 14 -59 20 -101 6 -42 16 -98 24 -126 8 -27 17 -75 20 -105 4
-30 13 -75 20 -100 8 -25 19 -78 25 -119 6 -40 14 -81 19 -90 5 -9 14 -47 20
-86 16 -101 46 -204 64 -218 8 -7 18 -35 21 -63 4 -29 14 -66 22 -84 14 -28
15 -41 5 -99 -7 -36 -17 -100 -23 -141 -5 -41 -18 -114 -29 -162 -10 -48 -19
-101 -19 -118 0 -17 -9 -75 -19 -128 -29 -148 -47 -708 -28 -852 8 -58 22
-118 31 -135 9 -16 16 -43 16 -58 0 -41 47 -138 83 -170 17 -15 49 -30 70 -34
56 -9 60 -27 54 -238 -3 -99 -1 -205 4 -234 8 -50 15 -62 76 -124 65 -65 70
-68 106 -64 34 5 43 1 73 -30 20 -20 34 -45 34 -59 0 -32 40 -48 99 -40 60 8
97 51 106 122 10 72 13 76 60 59 22 -8 57 -14 78 -15 31 0 44 7 72 38 21 21
37 51 40 72 9 59 27 84 70 95 50 15 54 28 13 46 -20 8 -34 24 -38 39 -10 43
-4 283 8 325 6 22 16 94 22 160 6 66 17 143 24 170 30 108 31 205 3 205 -33
-1 -49 -30 -58 -107 -6 -43 -16 -99 -24 -125 -8 -26 -19 -141 -25 -255 -6
-117 -18 -229 -26 -257 -8 -26 -14 -86 -14 -132 0 -87 -27 -187 -54 -197 -24
-9 -64 5 -88 31 l-25 27 7 395 c4 259 10 404 18 422 6 15 14 57 18 93 6 56 4
65 -10 71 -62 24 -95 -155 -96 -516 0 -346 -22 -588 -62 -692 -12 -32 -9 -31
-42 -18 -26 10 -59 66 -72 122 -3 18 -1 93 5 167 6 75 16 289 21 476 7 246 14
355 25 395 8 30 15 76 15 103 0 44 -2 47 -25 47 -32 0 -37 -13 -65 -160 -19
-101 -23 -160 -27 -480 -4 -259 -9 -372 -18 -390 -7 -14 -18 -49 -25 -78 -12
-51 -14 -53 -39 -47 -14 4 -28 11 -29 16 -2 5 -15 31 -30 57 -24 44 -25 55
-24 177 1 72 6 151 10 177 5 25 6 68 1 95 -4 26 -11 188 -14 358 -4 187 -11
319 -17 332 -8 16 -8 42 0 92 13 77 16 290 4 307 -4 6 -17 14 -29 18 -16 5
-23 2 -28 -14 -4 -12 -8 -216 -10 -455 l-3 -433 -23 -31 c-12 -17 -28 -31 -35
-31 -27 0 -57 64 -77 164 -18 89 -21 135 -19 391 1 160 6 328 13 374 10 74 9
90 -7 136 -17 50 -17 57 -1 117 9 34 21 102 27 151 6 48 15 98 19 110 5 13 12
50 15 83 4 32 14 105 23 161 24 159 17 214 -41 313 -34 58 -50 100 -57 144 -5
33 -16 81 -24 106 -7 25 -16 68 -20 95 -3 28 -12 70 -20 95 -8 25 -19 79 -24
121 -6 42 -15 87 -20 101 -5 13 -12 51 -16 84 -4 32 -16 92 -26 133 -10 41
-19 86 -19 100 0 14 -9 71 -19 126 -37 184 -54 279 -67 370 -7 50 -17 106 -23
125 -5 19 -12 67 -16 105 -3 39 -12 104 -20 145 -8 41 -19 145 -24 230 -6 85
-15 198 -21 250 -16 141 -18 702 -3 770 7 30 18 107 24 170 5 63 16 140 24
170 7 30 17 96 21 145 3 50 11 101 16 115 5 14 16 57 23 95 14 70 32 142 61
245 18 63 15 219 -5 335 -7 39 -16 93 -21 120 -12 72 -29 160 -47 235 -8 36
-21 92 -29 125 -20 91 -44 185 -59 235 -8 25 -19 79 -26 120 -6 41 -16 86 -21
99 -5 14 -18 138 -29 276 -16 197 -21 384 -26 875 -5 605 -2 759 27 1128 11
143 6 162 -43 162 -18 0 -40 -6 -49 -12z"/>
<path d="M9513 19485 c-12 -30 -9 -167 5 -192 7 -12 19 -50 26 -85 14 -59 33
-124 57 -193 6 -16 17 -52 24 -80 13 -47 27 -91 64 -195 8 -25 21 -63 27 -85
7 -22 22 -67 34 -100 29 -79 49 -164 60 -250 5 -38 19 -108 30 -155 11 -47 26
-116 34 -155 14 -72 34 -143 65 -230 10 -27 31 -90 46 -140 15 -49 33 -106 40
-125 7 -19 25 -75 40 -125 15 -49 35 -115 45 -145 9 -30 27 -86 38 -125 11
-38 30 -101 41 -140 12 -38 21 -77 21 -85 0 -8 9 -44 19 -80 26 -85 50 -187
66 -280 7 -41 18 -87 23 -101 6 -14 13 -52 17 -85 4 -32 13 -86 20 -120 8 -33
17 -96 20 -140 4 -43 13 -117 21 -164 7 -47 18 -168 24 -270 6 -102 15 -219
21 -260 19 -145 30 -724 19 -1052 -6 -172 -15 -335 -20 -361 -5 -26 -14 -107
-20 -178 -6 -72 -17 -161 -24 -197 -8 -37 -17 -103 -20 -146 -4 -44 -13 -107
-21 -140 -7 -34 -16 -88 -20 -121 -3 -33 -12 -82 -20 -110 -7 -27 -16 -75 -20
-105 -4 -30 -15 -88 -26 -129 -10 -41 -19 -85 -19 -98 0 -13 -9 -56 -19 -96
-11 -39 -24 -96 -30 -124 -26 -125 -34 -161 -51 -218 -10 -33 -21 -78 -24
-100 -4 -22 -13 -56 -20 -75 -12 -32 -25 -79 -61 -220 -7 -30 -20 -73 -29 -95
-8 -22 -15 -48 -16 -58 0 -11 -6 -33 -14 -50 -8 -18 -28 -79 -46 -137 -18 -58
-38 -119 -45 -135 -10 -22 -15 -114 -19 -335 -3 -204 -10 -333 -20 -390 -8
-47 -17 -116 -21 -155 -3 -38 -13 -92 -22 -120 -15 -46 -19 -112 -16 -280 0
-27 1 -76 1 -107 1 -31 8 -80 16 -110 8 -29 18 -80 21 -113 4 -33 13 -82 20
-110 8 -27 17 -79 20 -115 4 -36 16 -98 26 -139 10 -41 19 -91 19 -111 0 -19
7 -60 15 -90 31 -114 39 -340 26 -740 -6 -206 -16 -397 -21 -425 -5 -27 -14
-117 -20 -200 -6 -82 -17 -179 -25 -215 -7 -36 -16 -101 -19 -145 -4 -44 -13
-105 -21 -135 -7 -30 -16 -88 -20 -128 -3 -40 -12 -94 -20 -119 -7 -24 -17
-75 -20 -111 -4 -37 -13 -92 -20 -122 -8 -30 -19 -101 -24 -157 -6 -56 -15
-122 -21 -147 -5 -25 -14 -109 -20 -186 -6 -77 -14 -160 -20 -184 -5 -23 -14
-93 -20 -155 -6 -61 -17 -140 -24 -174 -8 -34 -17 -96 -21 -137 -3 -41 -12
-100 -20 -130 -7 -30 -16 -89 -20 -130 -4 -41 -13 -106 -20 -145 -8 -38 -19
-124 -25 -190 -5 -66 -17 -142 -25 -169 -8 -27 -15 -71 -15 -97 0 -27 -6 -66
-14 -86 -8 -21 -20 -90 -26 -153 -7 -63 -19 -137 -26 -164 -8 -27 -14 -64 -14
-81 0 -17 -7 -55 -15 -85 -9 -30 -20 -86 -26 -125 -5 -38 -21 -101 -35 -140
-23 -61 -63 -254 -81 -384 -3 -24 2 -96 11 -160 41 -268 52 -313 137 -526 17
-44 38 -98 46 -120 8 -22 23 -60 35 -85 31 -68 45 -101 67 -152 21 -47 43 -97
80 -181 10 -23 31 -71 46 -107 15 -36 38 -90 52 -120 14 -30 31 -68 39 -85 7
-16 34 -74 59 -128 25 -54 45 -102 45 -107 0 -4 15 -39 34 -76 19 -38 50 -103
70 -144 39 -84 70 -120 87 -103 19 19 13 61 -19 126 -30 62 -79 168 -112 242
-55 122 -73 164 -90 200 -28 62 -71 158 -80 180 -31 73 -143 331 -170 390 -42
93 -58 131 -65 155 -4 14 -14 34 -21 45 -8 11 -14 26 -14 35 0 8 -7 29 -16 45
-30 59 -85 230 -105 330 -33 170 -39 206 -39 253 0 29 6 65 14 80 7 15 16 61
20 102 4 41 13 100 21 130 7 30 17 87 21 125 4 39 12 86 19 105 7 20 16 60 20
90 4 30 15 88 26 129 10 41 19 87 19 103 0 15 9 65 19 110 11 46 24 110 30
143 5 33 17 89 25 125 9 36 16 93 16 127 0 34 6 92 14 130 8 37 17 113 20 168
4 55 13 125 21 155 7 30 16 89 20 130 4 41 13 102 20 135 7 33 19 106 25 161
6 56 15 116 20 134 5 18 14 90 20 159 6 69 15 142 20 161 5 19 14 101 20 181
6 81 15 161 20 180 5 18 15 80 20 138 6 58 17 129 25 156 7 28 16 77 20 110 3
33 12 83 20 110 7 28 16 84 20 125 4 41 13 102 20 135 7 33 18 110 24 170 7
61 16 128 21 150 5 22 14 117 20 210 6 94 16 199 21 235 6 36 13 244 16 463 6
431 9 398 -53 722 -8 44 -21 123 -29 175 -8 53 -18 107 -23 120 -5 14 -13 57
-16 95 -4 39 -14 91 -21 117 -8 26 -17 79 -21 119 -5 53 -13 78 -30 99 -29 34
-30 45 -4 106 11 26 25 81 30 123 6 42 17 101 25 131 7 30 17 87 20 125 4 39
13 120 21 181 8 64 14 215 15 350 l1 239 43 130 c24 72 55 171 70 220 15 50
33 106 40 125 7 19 15 53 19 75 4 22 13 56 20 75 16 39 39 129 61 233 8 37 19
75 24 85 5 9 12 37 16 62 3 25 13 69 21 98 8 29 21 85 29 125 8 39 19 97 25
127 7 30 20 96 30 145 32 154 51 256 66 365 8 58 18 119 24 135 5 17 12 68 15
115 4 47 13 117 21 155 7 39 18 133 24 210 5 77 16 172 22 210 18 97 18 1065
1 1185 -7 47 -17 182 -23 300 -6 118 -15 233 -20 255 -5 22 -14 99 -20 170 -6
72 -17 157 -24 190 -8 33 -17 91 -21 130 -4 38 -12 80 -17 95 -5 14 -16 59
-23 100 -12 72 -34 170 -56 255 -6 22 -19 74 -29 115 -27 109 -41 159 -57 210
-8 25 -20 68 -27 95 -8 28 -19 64 -25 80 -20 57 -42 130 -55 180 -8 28 -18 61
-24 75 -5 14 -34 99 -62 190 -29 91 -59 181 -68 200 -8 19 -18 80 -22 135 -4
55 -12 111 -17 125 -6 14 -14 50 -17 80 -7 51 -22 106 -67 235 -9 28 -27 84
-39 125 -12 41 -30 98 -40 125 -9 28 -27 84 -40 125 -12 41 -31 100 -41 130
-17 55 -51 171 -90 305 -20 70 -39 130 -64 195 -12 31 -14 33 -22 15z"/>
<path d="M6862 17312 c-15 -15 -20 -41 -26 -119 -4 -56 -11 -116 -17 -134 -6
-19 -16 -68 -24 -109 -7 -41 -20 -104 -28 -140 -17 -71 -31 -144 -47 -230 -24
-142 -31 -180 -41 -245 -6 -38 -19 -115 -29 -170 -10 -55 -22 -134 -25 -175
-4 -41 -13 -104 -20 -140 -7 -36 -16 -112 -20 -170 -4 -58 -13 -134 -20 -170
-7 -36 -16 -105 -20 -155 -4 -49 -13 -117 -20 -150 -7 -33 -16 -98 -20 -145
-4 -47 -13 -113 -21 -146 -7 -34 -18 -113 -24 -175 -6 -63 -16 -130 -21 -151
-5 -20 -14 -83 -19 -140 -6 -56 -17 -148 -25 -203 -8 -55 -19 -149 -24 -210
-14 -159 -41 -346 -52 -368 -6 -10 -16 -48 -23 -85 -8 -37 -21 -94 -30 -127
-9 -32 -16 -67 -16 -77 0 -10 -9 -51 -19 -91 -11 -39 -25 -97 -31 -127 -33
-167 -66 -288 -115 -415 -14 -38 -32 -92 -40 -118 -7 -26 -18 -54 -24 -61 -14
-16 -43 -104 -78 -234 -25 -92 -27 -109 -27 -347 -1 -191 -5 -270 -18 -335
-22 -113 -45 -330 -59 -570 -6 -107 -15 -200 -20 -206 -4 -5 -13 -59 -18 -118
-6 -60 -15 -114 -20 -120 -18 -21 -68 -170 -87 -256 -16 -73 -19 -128 -18
-385 0 -185 5 -333 13 -385 7 -47 16 -222 21 -390 5 -194 13 -338 23 -395 18
-100 33 -255 49 -480 13 -190 13 -807 0 -945 -6 -58 -15 -159 -22 -225 -11
-123 -22 -211 -40 -325 -25 -153 -29 -177 -39 -220 -17 -78 -43 -221 -56 -315
-7 -49 -17 -108 -23 -130 -6 -22 -16 -103 -21 -180 -6 -77 -15 -154 -20 -171
-5 -17 -12 -60 -16 -95 -3 -35 -15 -100 -25 -144 -12 -49 -23 -156 -29 -275
-36 -668 -38 -955 -6 -1055 19 -58 20 -346 6 -935 -7 -285 -6 -361 6 -435 8
-49 21 -97 28 -105 7 -8 17 -33 20 -55 4 -22 14 -52 21 -67 8 -15 14 -35 14
-45 0 -10 11 -39 25 -65 14 -26 25 -58 25 -71 0 -13 7 -46 15 -73 8 -27 19
-91 26 -143 6 -52 15 -106 20 -119 5 -14 16 -141 24 -284 15 -262 24 -331 45
-352 8 -8 15 -6 26 9 13 17 14 51 9 230 -4 116 -11 237 -15 270 -26 192 -42
297 -54 355 -19 84 -44 215 -62 314 -7 43 -18 93 -23 110 -6 17 -15 62 -21 99
-6 38 -17 79 -26 92 -18 27 -36 217 -25 265 4 19 4 220 -2 445 -5 226 -11 509
-14 630 -3 145 1 295 11 440 8 121 18 297 21 392 3 94 12 211 20 260 8 48 17
131 20 183 4 52 13 131 20 175 7 44 16 149 20 234 6 150 30 296 70 425 8 27
15 66 15 86 0 20 8 70 19 111 10 41 21 103 24 139 3 36 13 92 21 125 8 33 17
105 21 161 3 55 11 118 16 140 5 21 16 127 24 234 8 107 19 240 25 295 12 127
12 418 0 555 -5 58 -16 220 -25 360 -8 140 -19 280 -24 310 -6 30 -15 119 -21
197 -5 77 -15 164 -20 193 -5 29 -14 197 -20 373 -6 177 -15 360 -20 407 -13
112 -13 223 1 237 5 5 15 56 20 113 5 56 13 110 18 119 5 9 11 70 15 136 5 81
12 125 21 135 9 10 18 59 25 134 6 65 15 126 20 137 6 10 17 87 26 171 8 83
18 156 21 161 3 6 12 159 19 341 13 338 31 479 69 552 8 16 15 38 15 49 0 11
9 38 20 60 11 22 19 48 20 58 0 10 7 34 16 55 9 20 22 60 29 87 7 28 18 64 24
80 23 67 43 133 55 186 7 31 16 62 21 68 22 37 137 518 150 631 4 30 13 78 20
105 8 28 17 84 20 125 4 41 13 100 20 130 7 30 18 111 25 180 6 69 15 141 20
160 5 19 14 89 19 155 6 66 15 136 21 155 5 19 14 85 20 145 6 61 15 126 20
146 6 20 15 83 20 140 6 57 17 136 25 174 7 39 16 106 20 150 3 44 12 118 20
165 7 47 17 126 20 175 3 50 12 124 20 165 8 41 16 100 20 130 3 30 14 105 25
165 10 61 23 137 28 170 23 142 35 205 52 285 11 47 22 105 25 130 8 56 56
193 64 185 6 -6 20 -67 51 -220 6 -33 20 -98 30 -145 10 -47 21 -114 25 -150
4 -36 11 -75 16 -88 5 -12 14 -64 20 -115 6 -50 17 -117 24 -147 7 -30 16 -91
20 -135 3 -44 13 -116 20 -160 8 -44 19 -139 25 -211 6 -72 14 -145 19 -162 6
-18 13 -69 16 -115 4 -45 13 -113 21 -152 7 -38 18 -119 24 -179 6 -60 17
-136 25 -170 7 -34 16 -101 20 -149 4 -49 11 -103 16 -120 5 -17 14 -81 19
-142 6 -60 17 -148 25 -195 8 -47 17 -121 20 -165 4 -44 13 -102 20 -130 8
-27 19 -94 25 -149 5 -54 13 -102 16 -107 3 -5 14 -55 24 -112 37 -202 86
-400 137 -557 8 -25 21 -70 28 -100 7 -30 20 -72 29 -92 9 -21 16 -45 16 -55
0 -10 8 -40 19 -68 22 -59 46 -132 66 -195 26 -86 47 -145 57 -165 6 -11 17
-40 24 -65 14 -50 37 -119 64 -195 59 -168 54 -113 61 -730 6 -485 9 -578 23
-625 9 -30 16 -73 16 -95 0 -23 9 -75 19 -116 10 -41 22 -117 25 -169 13 -187
-25 -958 -54 -1115 -11 -62 -18 -133 -30 -345 -6 -91 -17 -217 -26 -280 -13
-92 -16 -198 -16 -535 0 -236 5 -451 11 -490 6 -38 15 -128 21 -200 6 -71 15
-161 21 -200 6 -38 15 -108 20 -155 6 -47 14 -110 20 -140 5 -30 14 -89 20
-130 6 -41 19 -115 29 -165 24 -118 48 -264 48 -295 0 -45 31 -384 41 -445 5
-33 13 -100 16 -150 4 -49 15 -119 25 -155 55 -189 79 -861 59 -1645 -7 -291
-12 -561 -11 -600 3 -85 -24 -312 -48 -415 -10 -41 -21 -100 -25 -130 -4 -30
-12 -66 -17 -80 -6 -14 -16 -63 -23 -110 -7 -47 -20 -123 -29 -170 -9 -47 -21
-110 -27 -140 -14 -74 -26 -183 -39 -370 -24 -328 -24 -324 -5 -344 10 -9 25
-16 34 -14 13 3 17 22 23 103 4 55 12 156 18 225 6 69 16 176 21 239 5 63 14
131 19 150 6 20 15 68 20 106 17 121 52 299 65 330 7 17 16 46 20 65 4 19 16
55 28 80 21 43 22 60 25 387 1 188 7 410 13 495 13 163 15 271 9 408 -3 59 3
117 17 190 32 158 34 202 18 376 -8 87 -15 258 -15 380 0 229 -12 360 -50 534
-24 115 -58 285 -70 360 -6 30 -13 125 -16 210 -3 85 -11 173 -16 195 -6 22
-16 85 -24 140 -7 55 -20 125 -29 155 -8 30 -15 70 -15 90 0 19 -7 60 -15 90
-8 30 -19 109 -25 175 -6 66 -15 138 -20 160 -6 22 -15 150 -20 285 -6 135
-17 296 -26 357 -14 92 -16 166 -11 400 3 159 10 315 16 348 5 33 15 116 21
185 6 68 15 140 20 160 5 19 11 145 14 280 3 195 8 264 24 340 44 209 55 304
59 532 l5 226 -37 114 c-120 370 -140 570 -109 1073 20 319 24 513 11 557 -4
15 -29 56 -56 92 -27 36 -52 75 -56 88 -4 13 -13 33 -21 44 -7 12 -20 48 -28
80 -49 193 -77 286 -101 339 -8 17 -17 44 -21 60 -4 17 -12 41 -20 55 -7 14
-22 57 -34 95 -19 64 -30 107 -59 238 -6 26 -16 68 -22 95 -6 26 -17 81 -25
122 -7 41 -18 85 -24 98 -5 13 -15 55 -21 95 -6 40 -15 80 -20 89 -18 34 -57
256 -64 363 -3 61 -13 144 -20 185 -7 41 -16 118 -20 170 -4 52 -13 127 -21
165 -7 39 -18 121 -24 182 -6 62 -14 123 -19 136 -5 13 -14 75 -21 138 -6 63
-15 130 -20 149 -5 19 -14 85 -20 145 -6 61 -17 144 -25 185 -7 41 -17 116
-20 165 -3 50 -12 126 -20 170 -8 44 -17 118 -20 165 -4 47 -13 112 -20 145
-8 33 -19 102 -25 152 -6 51 -14 103 -19 115 -5 13 -12 52 -15 88 -4 36 -16
106 -26 155 -10 50 -23 115 -29 145 -5 30 -15 78 -21 105 -42 184 -51 231 -60
325 -15 135 -17 145 -36 164 -20 21 -30 20 -52 -2z"/>
<path d="M12185 16400 c3 -63 8 -214 10 -335 4 -228 -1 -267 -42 -316 -8 -9
-20 -55 -28 -101 -7 -47 -21 -111 -30 -143 -13 -44 -16 -77 -11 -132 6 -65 5
-77 -14 -100 -14 -17 -20 -40 -20 -72 0 -75 16 -80 29 -9 7 35 17 68 21 73 5
6 13 39 20 73 6 35 16 76 21 90 6 15 16 56 24 92 7 36 18 79 24 95 5 17 17 50
25 75 7 25 26 77 40 115 28 77 31 113 17 225 -6 41 -15 122 -21 179 -6 58 -18
117 -26 132 -8 15 -18 58 -23 94 -15 107 -23 90 -16 -35z"/>
<path d="M3726 1481 c-13 -20 12 -52 64 -86 119 -77 421 -211 520 -230 19 -4
46 -13 60 -20 14 -7 48 -16 75 -19 28 -4 73 -14 100 -21 99 -28 608 -56 800
-45 232 14 409 31 441 41 18 5 40 19 50 30 18 20 18 21 -1 35 -10 8 -26 12
-34 9 -9 -2 -63 -9 -121 -15 -58 -6 -134 -15 -170 -20 -103 -15 -566 -12 -705
4 -231 28 -280 36 -340 51 -134 34 -267 78 -350 115 -99 44 -240 117 -286 147
-50 32 -92 42 -103 24z"/>
<path d="M9959 1461 c-44 -28 -218 -118 -284 -147 -83 -36 -248 -91 -360 -119
-229 -58 -828 -86 -1080 -51 -180 26 -289 31 -303 13 -11 -13 -7 -18 20 -35
43 -27 60 -30 213 -42 281 -23 414 -28 569 -20 392 21 502 35 686 91 36 10 69
19 75 19 10 0 76 25 180 67 64 26 226 105 260 126 11 6 42 25 68 41 40 25 47
34 45 55 -4 36 -34 37 -89 2z"/>
</g>
</svg>
