<?xml version="1.0" standalone="no"?>
<!DOCTYPE svg PUBLIC "-//W3C//DTD SVG 20010904//EN"
 "http://www.w3.org/TR/2001/REC-SVG-20010904/DTD/svg10.dtd">
<svg version="1.0" xmlns="http://www.w3.org/2000/svg"
 width="1375.000000pt" height="3583.000000pt" viewBox="0 0 1375.000000 3583.000000"
 preserveAspectRatio="xMidYMid meet">

<g transform="translate(0.000000,3583.000000) scale(0.100000,-0.100000)"
fill="#000000" stroke="none">
<path d="M6485 34580 c-49 -5 -107 -15 -127 -24 -21 -9 -45 -16 -54 -16 -25 0
-153 -59 -214 -98 -254 -165 -452 -421 -570 -737 -12 -33 -29 -76 -37 -95 -13
-34 -34 -108 -54 -200 -37 -163 -50 -249 -65 -439 -17 -223 -17 -223 16 -636
5 -61 13 -122 18 -136 6 -14 13 -52 17 -85 6 -62 35 -195 66 -304 42 -150 72
-247 84 -275 8 -16 17 -43 21 -60 4 -16 15 -46 26 -65 10 -19 18 -41 18 -48 0
-8 6 -26 14 -40 38 -71 63 -141 59 -165 -5 -27 9 -101 32 -172 19 -57 45 -167
60 -255 7 -41 17 -86 23 -100 5 -14 13 -54 16 -90 4 -36 14 -87 21 -115 19
-67 38 -298 30 -358 -6 -39 -12 -50 -35 -62 -15 -8 -93 -83 -172 -166 -282
-299 -385 -391 -558 -504 -41 -26 -86 -55 -100 -65 -14 -9 -86 -46 -160 -82
-120 -58 -165 -78 -275 -122 -16 -7 -77 -27 -135 -45 -58 -17 -125 -38 -150
-46 -25 -8 -75 -19 -112 -25 -37 -5 -78 -14 -92 -19 -13 -6 -68 -15 -122 -21
-55 -6 -115 -15 -134 -20 -19 -5 -96 -14 -170 -20 -74 -5 -151 -14 -170 -20
-19 -5 -84 -14 -144 -20 -146 -13 -309 -44 -401 -75 -240 -82 -416 -176 -586
-313 -138 -111 -276 -309 -354 -508 -14 -38 -33 -83 -41 -101 -8 -17 -14 -38
-14 -46 0 -8 -9 -39 -19 -69 -27 -75 -51 -178 -66 -283 -8 -49 -18 -112 -23
-140 -6 -27 -13 -99 -17 -160 -3 -60 -15 -191 -27 -290 -17 -153 -19 -215 -13
-415 3 -129 10 -282 15 -340 5 -58 14 -172 20 -255 6 -82 17 -181 25 -220 8
-38 19 -118 25 -176 6 -58 14 -119 19 -136 5 -16 14 -79 21 -139 7 -60 16
-119 21 -131 4 -12 4 -48 -1 -80 -6 -32 -15 -105 -20 -163 -6 -58 -17 -127
-25 -155 -7 -27 -16 -79 -20 -115 -4 -36 -13 -92 -20 -125 -7 -33 -16 -109
-20 -170 -4 -60 -14 -148 -23 -195 -14 -73 -16 -165 -13 -665 1 -319 7 -611
12 -650 5 -38 14 -122 19 -185 6 -63 17 -144 25 -180 9 -36 20 -108 25 -160 5
-52 21 -131 35 -175 32 -102 31 -118 -5 -190 -16 -33 -30 -66 -30 -72 0 -7 -9
-39 -19 -70 -11 -32 -23 -80 -27 -108 -4 -27 -13 -66 -19 -86 -7 -20 -16 -67
-20 -105 -4 -38 -13 -99 -21 -136 -27 -135 -52 -619 -42 -831 14 -309 29 -545
39 -597 5 -30 14 -125 19 -210 6 -85 17 -189 25 -230 8 -41 17 -111 20 -155 3
-44 13 -116 20 -160 8 -44 19 -141 25 -215 6 -74 15 -153 20 -175 5 -22 15
-137 21 -255 15 -271 -1 -794 -26 -853 -8 -20 -15 -49 -15 -64 -1 -15 -8 -46
-16 -68 -9 -22 -22 -62 -29 -90 -8 -27 -21 -70 -29 -95 -9 -25 -28 -85 -42
-135 -14 -49 -39 -114 -54 -143 -16 -30 -43 -106 -60 -170 -18 -64 -40 -145
-51 -180 -10 -34 -19 -72 -19 -83 0 -11 -6 -32 -14 -47 -8 -15 -17 -50 -21
-77 -4 -28 -13 -72 -22 -98 -20 -64 -13 -123 26 -227 79 -206 121 -341 121
-385 1 -16 9 -48 20 -70 11 -22 19 -58 20 -79 0 -22 12 -64 26 -94 19 -40 25
-68 24 -106 -4 -82 -2 -89 43 -138 31 -33 53 -48 80 -53 43 -8 62 -31 72 -90
3 -22 18 -57 32 -77 24 -36 29 -38 80 -38 29 0 69 6 88 14 19 8 37 11 40 6 3
-4 8 -35 11 -68 5 -47 13 -66 36 -91 28 -30 33 -32 96 -29 l66 3 9 40 c10 50
41 74 106 82 43 5 56 12 99 58 91 96 87 80 87 336 0 249 1 252 61 263 45 9
101 58 109 97 4 17 13 42 21 57 8 15 14 38 14 52 0 14 10 45 21 69 32 71 41
253 29 588 -6 158 -15 308 -20 333 -6 25 -16 92 -24 150 -8 58 -21 139 -29
180 -42 216 -55 311 -56 413 -1 69 3 95 19 124 11 21 20 51 20 68 1 16 8 48
16 70 23 61 54 174 65 235 6 30 17 78 25 105 8 28 19 82 24 120 5 39 17 92 25
119 8 27 15 61 15 76 0 14 9 60 19 101 10 41 22 101 26 133 4 33 11 71 16 84
5 14 14 59 20 101 6 42 16 99 24 126 7 28 16 77 20 110 4 33 13 85 20 115 8
30 17 84 20 120 4 36 13 92 20 126 8 34 19 110 25 170 6 60 15 125 20 144 5
20 16 146 25 280 11 186 15 452 15 1105 0 483 4 875 10 895 5 19 16 55 24 80
14 41 35 162 71 405 8 50 18 102 23 115 5 14 13 54 16 90 4 36 14 88 21 115 8
28 19 89 25 138 6 48 15 98 20 111 5 13 11 53 15 88 3 34 14 115 25 178 10 63
24 169 30 235 6 66 15 152 20 190 12 95 11 789 -1 895 -20 177 -23 465 -5 599
9 69 20 164 26 211 9 86 34 251 46 303 3 16 10 25 14 20 10 -10 39 -120 51
-193 6 -30 18 -67 28 -81 11 -14 24 -41 30 -60 24 -79 49 -138 84 -202 20 -37
37 -78 37 -90 0 -13 9 -48 20 -80 11 -31 20 -66 20 -77 0 -11 9 -46 19 -77 11
-32 31 -98 46 -148 15 -49 33 -106 40 -125 18 -47 43 -124 60 -185 8 -27 19
-59 24 -70 5 -11 23 -67 41 -125 17 -58 36 -116 42 -130 6 -14 16 -47 23 -75
7 -27 18 -63 23 -80 24 -66 51 -162 58 -200 4 -22 12 -51 19 -65 7 -14 15 -43
19 -65 4 -22 15 -69 25 -105 10 -36 28 -110 41 -165 12 -55 30 -136 40 -180
10 -44 21 -107 25 -140 4 -33 13 -82 20 -110 8 -27 17 -79 20 -115 4 -36 12
-85 20 -110 7 -25 16 -70 20 -100 3 -30 13 -78 20 -105 8 -28 19 -93 25 -145
6 -52 15 -111 21 -130 6 -19 16 -125 22 -235 14 -222 2 -475 -27 -560 -9 -25
-16 -58 -16 -73 0 -15 -7 -55 -16 -87 -9 -33 -22 -85 -29 -115 -7 -30 -18 -68
-24 -85 -11 -31 -32 -97 -56 -175 -8 -25 -28 -83 -45 -130 -17 -47 -37 -105
-44 -130 -8 -25 -26 -76 -41 -115 -14 -38 -33 -90 -41 -114 -7 -24 -18 -49
-23 -55 -4 -6 -11 -24 -15 -41 -7 -31 -47 -137 -72 -192 -8 -17 -14 -36 -14
-43 0 -6 -9 -28 -19 -48 -11 -20 -41 -86 -67 -147 -25 -60 -59 -137 -74 -170
-16 -33 -36 -87 -45 -120 -10 -33 -21 -64 -25 -70 -4 -5 -13 -35 -20 -65 -7
-30 -17 -62 -21 -70 -5 -8 -15 -42 -23 -75 -8 -33 -26 -100 -41 -150 -14 -49
-32 -120 -40 -158 -8 -37 -17 -73 -21 -79 -4 -7 -13 -42 -20 -78 -6 -36 -19
-94 -27 -130 -35 -147 -63 -292 -88 -440 -6 -36 -17 -101 -25 -145 -64 -343
-62 -319 -94 -1200 -12 -325 -12 -679 0 -935 5 -113 14 -315 20 -450 6 -135
17 -292 25 -350 8 -58 17 -154 20 -215 3 -60 13 -155 20 -210 8 -55 19 -168
25 -251 6 -83 15 -165 20 -184 5 -18 14 -101 20 -184 6 -83 15 -167 20 -186 5
-19 14 -98 20 -175 6 -77 15 -156 21 -175 5 -19 14 -78 20 -130 5 -52 16 -120
24 -150 7 -30 16 -80 20 -110 3 -30 12 -77 20 -105 7 -27 17 -72 20 -100 4
-27 16 -83 26 -124 10 -41 19 -87 19 -103 0 -15 7 -47 15 -71 8 -24 19 -77 25
-118 15 -107 40 -209 60 -244 12 -20 20 -64 24 -135 4 -58 13 -148 21 -200 7
-52 16 -153 19 -225 4 -71 14 -213 22 -315 10 -116 14 -239 11 -330 -3 -80 0
-257 5 -393 9 -231 9 -255 -10 -350 -11 -56 -23 -131 -27 -167 -4 -36 -13 -90
-20 -120 -8 -30 -18 -97 -24 -147 -6 -51 -15 -103 -20 -116 -5 -12 -12 -59
-16 -102 -4 -44 -13 -111 -21 -150 -7 -38 -18 -114 -24 -168 -5 -54 -17 -135
-24 -180 -8 -45 -20 -129 -25 -187 -6 -58 -15 -139 -20 -180 -5 -41 -15 -138
-21 -215 -6 -77 -15 -185 -20 -240 -12 -132 -12 -532 0 -665 6 -58 17 -188 25
-291 8 -102 18 -205 24 -230 5 -24 15 -99 21 -166 6 -66 15 -136 20 -154 5
-17 15 -80 21 -138 6 -58 15 -116 20 -128 5 -13 14 -65 20 -116 6 -50 17 -114
24 -142 7 -27 16 -77 20 -110 3 -33 12 -82 20 -110 16 -62 24 -110 30 -199 3
-37 9 -76 14 -85 5 -9 23 -79 40 -156 17 -77 35 -156 41 -175 5 -19 10 -55 10
-80 0 -25 7 -70 15 -100 8 -30 22 -89 30 -130 9 -41 22 -97 30 -124 8 -27 15
-62 15 -78 0 -16 9 -53 19 -83 11 -31 23 -81 27 -113 4 -31 12 -73 19 -93 7
-20 16 -67 20 -105 4 -38 13 -80 20 -94 7 -14 18 -62 24 -108 6 -45 15 -91 20
-101 6 -10 15 -58 21 -107 6 -49 15 -103 20 -119 6 -17 17 -80 25 -140 27
-208 36 -270 50 -347 9 -48 11 -88 6 -110 -5 -18 -17 -67 -26 -108 -26 -114
-86 -287 -140 -405 -7 -16 -26 -59 -41 -95 -15 -36 -43 -99 -62 -140 -47 -102
-62 -136 -122 -275 -29 -66 -67 -153 -86 -193 -19 -40 -34 -76 -34 -79 0 -7
-11 -31 -85 -188 -53 -112 -66 -169 -42 -178 22 -8 40 24 137 243 46 102 96
214 112 250 17 36 39 85 50 110 11 25 33 72 48 105 15 33 38 83 50 110 12 28
28 64 36 80 42 92 135 323 169 420 15 44 33 94 40 110 7 17 16 50 19 75 4 25
13 63 20 85 23 69 28 182 11 270 -8 44 -20 116 -26 160 -6 44 -15 105 -20 135
-5 30 -14 89 -20 130 -6 41 -20 110 -30 152 -11 43 -19 88 -19 101 0 12 -7 47
-15 77 -8 30 -21 91 -29 135 -8 44 -18 91 -24 105 -5 14 -13 50 -17 80 -4 30
-12 66 -17 80 -6 14 -16 59 -23 100 -7 41 -20 104 -28 140 -15 64 -22 99 -57
275 -35 176 -42 211 -60 295 -11 47 -22 110 -26 140 -3 30 -10 66 -15 79 -5
12 -16 67 -24 121 -8 54 -19 109 -24 121 -5 13 -12 53 -15 89 -4 36 -14 88
-21 115 -8 28 -19 92 -25 142 -5 51 -14 103 -19 116 -6 14 -15 70 -21 125 -6
55 -15 115 -20 133 -6 18 -15 83 -20 144 -6 60 -17 146 -25 190 -7 44 -17 125
-20 180 -4 55 -13 151 -21 213 -20 159 -20 848 0 999 8 59 20 171 25 248 6 77
15 155 20 172 5 18 12 74 16 125 4 51 13 125 21 163 7 39 18 118 24 176 6 58
15 121 20 140 6 19 15 79 21 133 5 55 16 127 24 160 7 34 16 90 20 126 4 36
13 88 20 115 8 28 17 84 20 125 4 41 16 116 26 165 25 120 27 391 3 461 -13
39 -15 82 -12 228 3 205 -16 629 -37 786 -8 58 -17 148 -20 200 -9 140 -34
290 -56 328 -10 18 -21 52 -24 75 -6 40 -24 131 -65 317 -11 47 -22 110 -26
140 -3 30 -12 71 -19 90 -7 20 -16 65 -20 100 -4 36 -13 88 -20 115 -8 28 -19
91 -24 141 -6 50 -15 104 -21 120 -5 16 -14 90 -20 164 -6 74 -15 151 -20 170
-5 19 -14 105 -20 190 -6 85 -15 171 -20 190 -6 19 -15 96 -20 170 -6 74 -17
182 -25 240 -7 58 -17 152 -20 210 -3 58 -12 152 -20 210 -8 58 -19 200 -25
315 -6 116 -15 251 -20 300 -12 115 -12 1366 0 1545 5 74 14 232 21 350 9 166
16 226 30 263 12 30 19 73 19 115 0 37 6 92 14 122 8 30 17 84 21 120 4 36 15
102 26 146 10 45 19 93 19 106 0 13 7 51 16 83 9 33 22 89 30 125 31 154 70
313 105 435 11 39 29 102 40 140 11 39 28 97 39 130 11 33 20 67 20 75 1 8 9
33 20 55 11 22 19 45 20 51 0 6 8 22 18 35 11 13 22 43 25 66 4 23 14 54 21
70 8 15 24 49 36 76 25 58 54 123 79 180 19 39 30 69 61 157 7 19 21 55 31 80
10 25 21 56 24 70 4 14 12 39 20 55 7 17 25 64 40 105 15 41 33 91 40 110 7
19 20 55 28 80 8 25 37 113 64 195 69 205 92 281 102 340 5 28 14 61 19 75 5
14 13 50 17 80 3 30 14 82 22 115 30 119 33 568 4 698 -6 25 -15 90 -21 144
-6 54 -17 121 -25 148 -7 28 -16 75 -20 105 -3 30 -13 78 -20 105 -8 28 -18
86 -24 130 -5 45 -14 92 -19 106 -6 14 -15 67 -21 119 -7 51 -14 97 -17 102
-3 5 -14 52 -24 106 -31 157 -41 204 -60 267 -10 33 -22 80 -25 105 -4 25 -13
56 -20 70 -7 14 -15 43 -19 65 -4 22 -16 69 -27 105 -11 36 -28 92 -38 125
-54 181 -65 214 -81 260 -9 28 -30 91 -45 140 -15 50 -33 106 -40 125 -19 51
-44 128 -61 190 -9 30 -19 60 -24 65 -4 6 -11 26 -15 45 -3 19 -15 62 -25 95
-10 33 -31 101 -45 150 -15 50 -33 101 -40 115 -7 14 -15 41 -19 60 -3 19 -21
66 -40 103 -19 38 -38 83 -42 100 -4 18 -15 48 -25 67 -11 19 -19 46 -19 60
-1 14 -9 43 -20 65 -11 22 -19 49 -20 61 0 11 -9 54 -19 95 -11 41 -25 124
-31 184 -7 61 -14 133 -17 160 -9 78 -37 98 -70 49 -13 -20 -19 -60 -24 -159
-4 -73 -14 -166 -22 -207 -8 -40 -18 -116 -21 -168 -4 -52 -15 -135 -26 -185
-43 -207 -52 -267 -57 -411 -5 -126 -3 -159 11 -200 13 -36 20 -113 28 -294
11 -256 3 -803 -12 -900 -5 -30 -16 -120 -24 -200 -9 -80 -20 -160 -25 -179
-6 -18 -15 -78 -21 -133 -6 -55 -15 -111 -20 -124 -5 -13 -15 -66 -21 -117 -6
-50 -15 -99 -19 -108 -5 -8 -14 -56 -20 -105 -7 -49 -18 -111 -26 -138 -8 -27
-14 -80 -14 -118 0 -40 -8 -92 -19 -126 -10 -31 -22 -80 -25 -109 -4 -28 -13
-68 -21 -87 -26 -63 -35 -342 -35 -1161 0 -439 -4 -826 -10 -870 -5 -44 -14
-147 -20 -230 -6 -82 -15 -166 -20 -185 -5 -20 -14 -79 -19 -131 -10 -89 -19
-146 -56 -349 -9 -47 -22 -125 -30 -175 -7 -49 -18 -101 -23 -115 -5 -14 -13
-54 -16 -90 -4 -36 -14 -85 -21 -110 -8 -25 -19 -81 -24 -125 -6 -44 -17 -102
-26 -129 -8 -27 -15 -60 -15 -74 0 -23 -8 -61 -60 -292 -11 -47 -23 -103 -26
-125 -4 -22 -12 -51 -19 -65 -7 -14 -15 -43 -19 -65 -8 -45 -52 -183 -64 -199
-24 -33 4 -384 43 -551 8 -33 19 -98 24 -145 5 -47 14 -98 20 -113 15 -39 14
-78 -4 -121 -13 -31 -14 -50 -5 -115 6 -43 11 -208 13 -367 2 -238 -1 -308
-16 -399 -15 -95 -22 -114 -46 -139 -29 -28 -29 -28 -55 -10 -14 11 -28 28
-31 39 -2 11 -6 213 -9 448 -3 235 -8 432 -11 438 -9 13 -39 11 -53 -3 -15
-15 -16 -186 -1 -297 8 -59 8 -89 0 -109 -7 -18 -12 -195 -15 -522 -3 -479 -4
-497 -26 -568 -21 -68 -46 -102 -76 -102 -6 0 -23 37 -37 83 -26 81 -27 88
-31 437 -3 266 -8 370 -19 415 -8 33 -18 86 -22 118 -7 60 -26 90 -54 85 -22
-4 -26 -75 -7 -141 22 -77 26 -146 37 -537 6 -195 12 -389 15 -430 4 -60 1
-86 -14 -125 -24 -61 -40 -72 -77 -54 -20 10 -32 27 -42 59 -21 70 -43 374
-43 602 0 375 -40 593 -97 535 -14 -14 -14 -28 5 -139 17 -103 21 -182 26
-484 l4 -361 -28 -22 c-29 -21 -66 -27 -85 -13 -36 26 -49 69 -56 197 -4 71
-12 157 -18 190 -6 33 -13 124 -16 201 -3 82 -12 164 -21 195 -8 30 -19 92
-23 139 -9 97 -13 110 -42 129 -30 18 -42 2 -47 -66 -3 -43 2 -72 18 -113 15
-37 23 -86 27 -150 3 -53 13 -120 24 -153 14 -41 19 -85 19 -161 0 -119 -9
-151 -45 -168 -23 -10 -29 -8 -58 20 -30 30 -32 36 -37 129 -3 54 -11 107 -17
118 -6 12 -15 50 -18 85 -4 36 -13 88 -20 115 -8 28 -17 75 -20 105 -8 60 -48
208 -65 241 -17 30 -13 271 5 344 8 33 19 83 24 110 5 28 26 97 45 155 58 168
68 202 82 260 21 92 44 174 55 195 5 11 16 43 23 70 8 28 26 88 41 135 15 47
32 112 39 145 7 33 20 81 29 106 14 40 15 106 13 495 -2 293 -7 463 -14 489
-7 22 -16 105 -22 185 -6 80 -17 179 -25 220 -8 41 -17 111 -20 155 -4 44 -13
114 -20 155 -8 41 -19 138 -25 215 -6 77 -15 167 -20 200 -5 33 -14 138 -20
233 -6 96 -15 206 -20 245 -12 95 -12 616 0 692 5 33 14 123 20 200 6 76 17
164 24 195 8 30 17 84 21 118 3 35 11 76 16 90 6 15 16 56 24 92 7 36 23 97
35 135 22 71 35 115 49 170 6 22 1 53 -14 105 -12 41 -25 113 -29 160 -4 47
-13 110 -21 140 -7 30 -16 89 -20 130 -3 41 -14 113 -22 160 -13 71 -16 190
-17 745 -1 579 1 672 16 760 9 55 20 141 23 190 4 50 13 117 20 150 8 33 19
96 25 141 6 45 15 96 20 115 6 19 16 105 22 192 12 163 8 220 -27 382 -7 33
-16 98 -20 145 -4 47 -13 112 -20 145 -7 33 -16 98 -20 145 -3 47 -12 141 -20
210 -26 220 -35 635 -19 862 8 110 16 203 19 207 2 4 9 79 15 167 6 87 18 184
25 214 7 30 16 80 20 110 4 30 16 87 26 125 31 110 72 239 79 250 4 6 13 27
20 48 28 89 142 282 215 366 120 138 325 277 540 366 72 30 215 75 239 75 13
0 42 7 66 15 23 8 92 20 153 25 62 6 128 15 148 20 20 6 94 15 165 20 70 6
146 15 169 20 22 5 87 14 145 20 58 6 121 15 141 20 19 6 71 17 115 25 89 17
184 40 229 56 17 6 57 19 90 29 68 21 140 46 170 60 11 5 54 23 95 41 84 36
285 138 327 167 16 10 48 32 73 48 177 113 317 238 504 449 49 55 134 145 190
200 l101 99 -3 149 c-1 86 -8 173 -16 206 -8 31 -17 83 -21 116 -3 33 -12 83
-20 110 -7 28 -17 73 -20 100 -4 28 -13 73 -20 100 -8 28 -28 126 -45 219 -17
92 -35 176 -40 185 -5 9 -26 58 -45 109 -20 51 -40 101 -44 110 -20 39 -71
189 -102 297 -66 231 -113 463 -130 640 -6 66 -15 156 -19 200 -12 110 -12
262 0 370 28 253 39 342 48 365 5 14 12 48 16 75 8 53 35 147 67 230 10 28 19
54 19 58 0 20 102 230 148 305 49 79 177 236 238 290 97 88 284 202 330 202 8
0 29 7 46 16 41 21 265 47 360 41 70 -5 78 -3 98 18 l22 23 -24 13 c-29 15
-192 20 -313 9z"/>
<path d="M6990 34581 c-58 -11 -65 -20 -40 -46 20 -21 28 -23 98 -18 94 6 320
-20 361 -41 16 -9 36 -16 44 -16 35 0 187 -89 276 -160 122 -100 257 -259 323
-385 66 -125 158 -342 158 -373 0 -6 9 -38 19 -69 11 -32 23 -78 26 -103 4
-25 13 -67 20 -95 8 -27 16 -84 20 -125 3 -41 10 -109 15 -150 16 -130 19
-261 10 -390 -17 -219 -38 -414 -49 -442 -5 -14 -13 -55 -17 -90 -4 -34 -15
-89 -25 -122 -11 -32 -19 -69 -19 -81 0 -13 -8 -47 -19 -77 -10 -29 -23 -71
-29 -93 -5 -22 -15 -56 -22 -75 -7 -19 -20 -57 -30 -85 -27 -78 -80 -216 -90
-234 -32 -60 -60 -139 -60 -171 0 -20 -7 -59 -15 -86 -8 -27 -20 -85 -26 -129
-6 -44 -17 -100 -24 -125 -8 -25 -16 -65 -20 -90 -4 -25 -13 -65 -20 -90 -8
-25 -17 -74 -20 -110 -4 -36 -13 -89 -22 -118 -10 -35 -15 -106 -16 -216 l-2
-163 125 -124 c69 -68 190 -192 270 -275 181 -188 271 -260 505 -406 58 -36
208 -112 295 -148 41 -17 84 -35 95 -40 52 -23 154 -59 185 -65 19 -4 46 -13
60 -20 14 -7 45 -16 69 -20 24 -4 58 -13 75 -20 17 -7 56 -16 86 -20 30 -4 80
-13 111 -21 31 -8 103 -19 160 -24 57 -6 120 -15 139 -20 19 -5 96 -14 170
-20 74 -6 151 -15 170 -20 19 -5 82 -14 140 -20 144 -14 341 -62 445 -109 22
-10 65 -29 95 -42 47 -21 91 -44 181 -95 10 -6 27 -18 37 -27 10 -10 22 -17
25 -17 9 0 92 -63 137 -104 67 -60 135 -150 228 -301 7 -11 17 -31 22 -45 6
-14 19 -43 29 -65 60 -127 134 -371 146 -480 4 -33 13 -85 20 -115 8 -30 19
-129 25 -219 6 -90 13 -167 15 -171 2 -4 11 -88 19 -187 12 -155 13 -224 1
-501 -7 -177 -16 -325 -18 -329 -3 -5 -11 -74 -17 -153 -6 -80 -17 -174 -25
-210 -7 -36 -17 -103 -20 -150 -4 -47 -13 -112 -20 -145 -7 -33 -18 -120 -25
-194 -12 -143 -1 -325 25 -431 7 -30 16 -82 20 -115 3 -33 13 -85 20 -115 8
-30 17 -100 20 -155 4 -55 14 -143 23 -195 24 -135 23 -1300 -1 -1455 -9 -55
-18 -134 -22 -175 -3 -41 -12 -97 -20 -125 -7 -27 -16 -88 -20 -135 -4 -47
-13 -110 -21 -141 -16 -65 -18 -135 -5 -143 13 -9 67 108 84 184 8 36 18 101
22 145 3 44 12 105 20 135 7 30 18 109 24 175 6 66 15 161 21 210 5 50 10 333
11 630 1 451 -1 555 -14 630 -9 50 -19 137 -22 195 -4 58 -11 125 -17 150 -5
25 -16 88 -23 140 -8 52 -21 127 -29 165 -9 39 -16 89 -16 112 0 23 -7 77 -15
120 -19 98 -19 193 -1 228 8 15 17 59 21 99 4 39 11 81 16 93 4 12 13 71 19
130 5 59 17 140 25 178 7 39 19 151 25 250 7 99 13 182 15 186 2 3 9 134 16
290 10 264 10 296 -9 464 -12 99 -24 234 -27 300 -4 66 -11 140 -17 165 -5 25
-15 88 -23 140 -23 170 -91 407 -157 550 -50 110 -69 144 -123 225 -148 223
-384 401 -690 520 -90 35 -223 75 -249 75 -12 0 -46 6 -76 14 -30 8 -109 19
-175 26 -66 6 -136 15 -155 20 -19 5 -96 14 -170 20 -74 6 -152 15 -175 20
-22 5 -80 14 -130 20 -49 6 -117 17 -150 25 -294 70 -361 89 -443 126 -23 10
-48 19 -54 19 -18 0 -346 158 -418 202 -198 120 -358 256 -571 485 -101 108
-202 210 -226 226 -42 30 -57 61 -55 117 2 76 25 283 37 330 7 30 17 82 21
115 4 33 11 71 16 85 6 14 16 59 23 100 15 85 38 185 66 280 11 36 19 90 19
120 0 33 6 64 15 76 8 12 21 39 28 60 8 21 31 82 52 134 72 183 91 241 111
329 8 35 19 71 23 80 5 9 15 46 21 81 6 36 17 85 25 110 7 25 18 79 24 120 5
41 15 95 20 120 5 25 15 147 22 272 10 183 10 271 0 448 -7 121 -18 242 -26
268 -7 26 -17 70 -20 97 -10 80 -88 344 -112 380 -7 11 -13 25 -13 33 0 22
-97 209 -148 284 -26 39 -54 81 -63 95 -31 46 -164 184 -224 231 -126 99 -209
143 -360 192 -102 32 -332 49 -425 31z"/>
<path d="M10039 26213 c-6 -15 -17 -86 -25 -158 -12 -117 -36 -248 -65 -360
-29 -111 -39 -143 -58 -180 -12 -21 -21 -45 -21 -52 0 -8 -16 -46 -35 -85 -20
-39 -40 -88 -45 -107 -5 -20 -22 -74 -39 -121 -17 -47 -35 -110 -42 -140 -6
-30 -15 -59 -19 -65 -4 -5 -12 -32 -19 -60 -6 -27 -18 -66 -25 -85 -8 -19 -26
-75 -41 -125 -15 -49 -33 -106 -41 -125 -7 -19 -17 -51 -23 -70 -5 -19 -14
-48 -20 -65 -24 -64 -94 -283 -106 -330 -8 -27 -25 -88 -40 -135 -14 -47 -30
-103 -36 -125 -5 -22 -16 -62 -24 -90 -42 -141 -108 -426 -136 -595 -6 -36
-19 -105 -29 -155 -10 -49 -21 -115 -25 -145 -3 -30 -12 -77 -20 -105 -8 -27
-17 -77 -21 -110 -4 -33 -12 -76 -19 -96 -7 -20 -16 -71 -20 -115 -4 -43 -13
-109 -21 -145 -24 -118 -36 -403 -25 -568 6 -82 15 -161 21 -176 5 -14 15 -59
21 -98 5 -40 16 -92 24 -117 8 -25 18 -67 24 -95 5 -27 17 -72 26 -100 9 -27
28 -88 43 -135 14 -47 32 -96 39 -110 7 -14 13 -33 13 -43 0 -11 7 -33 14 -50
17 -36 50 -131 70 -197 8 -25 30 -85 50 -133 20 -48 36 -93 36 -100 1 -7 9
-30 20 -52 11 -22 19 -44 20 -49 0 -9 41 -117 60 -161 5 -11 32 -74 60 -140
28 -66 55 -127 60 -136 19 -36 100 -255 128 -349 62 -206 82 -277 107 -388 8
-35 19 -71 24 -80 5 -9 14 -50 20 -91 6 -40 15 -81 20 -90 5 -9 14 -49 20 -90
6 -40 16 -81 21 -90 4 -9 14 -54 20 -100 6 -46 15 -94 20 -107 5 -13 15 -66
21 -117 6 -50 17 -117 25 -148 8 -31 14 -83 14 -115 0 -33 9 -86 19 -119 14
-46 22 -117 30 -290 6 -127 16 -300 21 -385 12 -198 12 -1234 0 -1405 -5 -71
-14 -224 -20 -340 -6 -115 -17 -259 -25 -320 -8 -60 -17 -157 -20 -215 -3 -58
-12 -150 -20 -205 -8 -55 -19 -163 -25 -240 -5 -77 -14 -156 -19 -175 -6 -19
-15 -102 -21 -183 -5 -82 -14 -167 -20 -191 -5 -23 -14 -102 -20 -175 -6 -73
-17 -160 -24 -194 -8 -34 -17 -91 -20 -127 -4 -36 -13 -87 -20 -115 -8 -27
-17 -77 -21 -110 -3 -33 -12 -80 -20 -105 -8 -25 -19 -80 -25 -123 -5 -43 -14
-86 -19 -95 -5 -9 -12 -42 -16 -72 -3 -30 -13 -78 -21 -106 -7 -29 -19 -87
-25 -130 -6 -43 -19 -94 -29 -113 -26 -53 -39 -127 -56 -311 -8 -91 -17 -172
-20 -180 -11 -31 -38 -535 -40 -770 -1 -135 -7 -263 -13 -285 -16 -61 -13
-346 5 -440 8 -44 21 -129 29 -190 8 -60 19 -126 24 -145 5 -19 15 -77 21
-127 5 -51 15 -104 20 -117 5 -14 12 -60 16 -103 3 -43 12 -105 19 -139 8 -33
19 -107 25 -165 5 -57 17 -135 24 -174 8 -38 17 -114 21 -169 4 -54 11 -112
16 -130 5 -17 14 -94 19 -171 6 -77 17 -193 25 -258 20 -163 21 -775 1 -942
-8 -66 -18 -165 -21 -220 -3 -55 -13 -136 -20 -180 -8 -44 -17 -118 -21 -165
-3 -47 -12 -112 -19 -145 -7 -33 -16 -87 -20 -120 -6 -62 -33 -225 -62 -375
-9 -47 -20 -116 -25 -155 -5 -38 -15 -92 -23 -120 -7 -27 -17 -75 -20 -105 -3
-30 -12 -77 -20 -105 -7 -27 -16 -75 -20 -105 -3 -30 -12 -77 -20 -105 -7 -27
-18 -81 -24 -120 -6 -38 -18 -92 -26 -119 -8 -27 -15 -61 -15 -76 0 -14 -9
-60 -19 -101 -10 -41 -22 -98 -25 -128 -4 -30 -11 -62 -16 -71 -5 -10 -16 -55
-24 -101 -21 -114 -44 -223 -61 -289 -9 -30 -19 -80 -24 -110 -5 -30 -16 -84
-24 -120 -33 -142 -87 -440 -106 -590 -6 -41 -15 -107 -22 -147 -6 -40 -8 -89
-4 -110 l7 -38 28 32 c20 22 30 47 34 80 3 26 11 77 16 113 6 36 17 112 25
170 7 58 18 117 24 131 5 15 14 68 20 117 5 50 14 99 20 109 5 10 14 52 20 93
5 41 16 93 24 115 8 22 17 69 21 103 4 35 12 76 17 90 6 15 17 61 24 102 8 41
21 102 29 135 18 76 33 148 52 254 8 46 19 92 24 102 6 10 14 60 20 112 5 52
14 106 20 121 5 14 16 65 25 113 8 49 21 113 29 143 7 30 21 91 30 135 8 44
23 116 32 160 9 44 22 119 29 167 7 48 18 102 24 120 5 18 15 78 21 132 7 55
16 109 20 122 5 12 14 66 20 120 6 55 17 131 24 169 8 39 17 111 21 160 3 50
10 109 16 130 5 22 16 128 24 235 8 107 19 254 24 325 13 161 13 380 1 545
-24 341 -41 534 -50 577 -5 26 -14 102 -20 168 -5 66 -14 136 -19 155 -6 19
-15 85 -20 145 -6 61 -16 126 -21 145 -5 18 -14 81 -20 138 -6 58 -17 132 -25
166 -7 34 -16 90 -20 126 -3 36 -12 90 -20 120 -7 30 -17 87 -20 125 -4 39
-14 97 -23 130 -12 46 -16 107 -16 270 1 582 4 761 18 890 8 77 18 203 21 280
4 77 12 183 20 235 7 52 17 140 20 195 4 55 13 109 20 121 16 24 60 207 70
283 3 30 10 62 15 72 5 9 14 50 21 90 6 41 17 97 24 124 7 28 16 73 20 100 4
28 13 73 20 100 8 28 17 75 20 105 4 30 13 80 20 110 8 30 19 100 25 155 6 55
15 116 20 135 5 19 14 98 20 175 6 77 15 156 20 175 5 19 14 103 20 186 6 83
15 166 20 184 5 18 14 101 20 184 6 83 17 196 25 251 8 55 17 152 20 215 3 63
12 162 20 220 12 89 30 467 49 1022 5 133 -6 678 -24 1158 -10 283 -27 466
-57 610 -8 41 -20 109 -25 150 -5 41 -18 114 -29 162 -10 48 -19 97 -19 109 0
20 -13 82 -56 264 -9 39 -20 95 -25 125 -5 30 -14 67 -20 83 -6 15 -17 55 -24
90 -17 80 -36 150 -106 390 -31 105 -141 403 -169 456 -5 9 -17 36 -28 61 -11
25 -32 71 -46 102 -14 31 -26 61 -26 67 0 6 -9 30 -19 53 -10 24 -28 68 -39
98 -52 146 -75 207 -85 225 -5 11 -16 40 -23 65 -16 56 -52 158 -64 185 -15
31 -90 256 -101 300 -5 22 -16 56 -23 75 -17 41 -45 153 -58 230 -5 30 -16 78
-24 106 -20 72 -47 367 -40 444 3 36 10 130 16 209 6 80 17 172 25 205 7 34
16 90 20 126 3 36 12 88 20 115 8 28 17 77 21 110 4 33 12 76 19 96 7 20 16
67 20 105 3 38 13 92 20 119 8 28 17 75 20 105 7 64 38 214 66 317 10 40 19
81 19 90 0 10 8 47 19 83 26 88 50 174 65 241 7 31 16 62 21 68 4 7 16 45 27
85 43 159 49 179 98 321 9 28 39 118 65 200 25 83 53 166 60 185 7 19 25 76
40 125 15 50 36 116 46 148 11 31 19 66 19 77 0 11 9 46 20 77 11 32 20 69 20
84 0 14 8 37 18 50 35 45 68 123 109 254 8 28 19 55 23 60 4 6 11 26 14 45 4
19 19 69 33 110 14 41 27 82 30 90 8 25 20 -18 32 -116 6 -49 15 -103 20 -121
5 -17 12 -71 16 -120 3 -48 13 -140 22 -203 16 -122 14 -343 -7 -540 -12 -115
-13 -859 -1 -950 5 -36 14 -114 20 -175 7 -60 17 -141 22 -180 6 -38 15 -104
21 -145 5 -41 17 -109 25 -150 8 -41 19 -109 24 -150 6 -41 16 -97 24 -125 7
-27 17 -79 21 -115 3 -36 11 -76 16 -90 5 -13 16 -71 24 -129 8 -57 20 -111
26 -119 7 -7 15 -60 18 -117 5 -76 12 -112 25 -132 24 -35 39 -120 36 -198 -1
-33 -3 -424 -4 -870 -2 -697 1 -843 16 -1045 10 -129 22 -254 28 -278 5 -24
14 -89 19 -145 6 -56 17 -129 24 -162 8 -33 18 -94 22 -135 3 -41 11 -86 16
-100 5 -13 15 -70 23 -126 8 -56 19 -113 24 -126 5 -13 12 -51 16 -84 4 -32
13 -81 20 -109 8 -27 19 -88 25 -133 6 -46 16 -95 21 -109 5 -14 14 -60 20
-102 6 -41 15 -83 20 -93 5 -9 14 -52 20 -95 5 -43 16 -96 24 -118 8 -22 17
-62 20 -90 6 -44 16 -80 55 -210 19 -61 23 -249 7 -322 -8 -37 -18 -95 -22
-128 -3 -33 -13 -85 -20 -115 -7 -30 -17 -86 -20 -125 -4 -38 -14 -97 -22
-129 -13 -52 -34 -441 -37 -671 -1 -86 22 -261 38 -293 8 -15 17 -46 21 -67
16 -103 93 -205 155 -205 48 0 50 -9 50 -239 0 -119 4 -233 9 -254 7 -27 28
-58 73 -103 59 -60 66 -64 108 -64 37 0 50 -5 72 -28 15 -16 31 -44 35 -63 9
-34 9 -34 75 -37 64 -3 65 -2 92 32 16 21 31 59 37 93 13 71 17 77 35 62 8 -6
45 -14 82 -16 l67 -5 29 38 c16 20 33 57 38 82 10 56 29 78 73 86 47 9 53 24
16 37 -17 6 -36 19 -41 29 -13 24 -13 273 0 325 6 22 17 107 25 189 9 82 20
157 26 169 6 11 13 55 16 98 5 67 3 79 -11 85 -32 12 -54 -23 -61 -94 -4 -37
-13 -92 -22 -122 -8 -30 -19 -116 -24 -190 -5 -74 -14 -180 -19 -235 -6 -55
-15 -152 -19 -215 -11 -143 -36 -210 -78 -210 -30 0 -91 38 -95 59 -2 8 0 181
3 385 5 289 10 385 23 436 16 66 21 151 10 163 -10 9 -42 -11 -54 -33 -25 -46
-41 -247 -50 -605 -8 -314 -12 -384 -30 -465 -28 -129 -28 -130 -54 -130 -27
0 -46 20 -70 76 -14 33 -16 59 -12 145 3 57 9 271 15 474 7 278 13 389 26 445
34 154 30 189 -18 171 -21 -8 -27 -18 -32 -58 -3 -26 -13 -77 -22 -113 -14
-53 -17 -133 -20 -430 -3 -360 -3 -366 -29 -450 -15 -47 -28 -90 -29 -96 -2
-6 -14 -9 -27 -7 -18 3 -33 22 -58 70 l-33 66 8 151 c10 187 9 205 -4 446 -6
107 -8 251 -5 320 6 108 4 130 -10 159 -15 27 -16 41 -7 79 15 69 24 224 16
281 -5 38 -12 52 -27 57 -11 3 -25 1 -32 -5 -8 -9 -12 -140 -16 -454 l-5 -442
-23 -32 c-13 -18 -27 -33 -32 -33 -5 0 -20 15 -34 33 -20 26 -31 61 -47 153
-17 101 -20 156 -19 364 1 135 7 298 13 363 9 94 8 125 -2 150 -15 36 -15 95
-1 133 5 13 15 66 20 117 6 50 16 110 22 132 18 69 51 317 52 390 0 65 -22
176 -46 235 -11 26 -37 138 -62 270 -8 41 -22 102 -30 135 -9 32 -16 71 -16
86 0 14 -7 48 -15 75 -8 27 -20 83 -26 124 -6 41 -16 98 -24 125 -7 28 -16 77
-20 110 -3 33 -12 80 -20 105 -7 25 -16 72 -20 105 -4 33 -13 83 -20 110 -8
28 -19 91 -24 140 -6 50 -15 104 -20 122 -5 18 -12 63 -16 100 -4 37 -15 119
-26 182 -10 62 -19 137 -19 165 0 28 -8 105 -17 171 -13 99 -17 285 -22 1078
-6 901 -7 959 -24 972 -13 10 -18 30 -21 91 -2 52 -9 91 -21 114 -14 26 -20
69 -25 160 -4 69 -12 136 -17 150 -6 14 -14 54 -17 90 -4 36 -14 88 -21 115
-8 28 -18 86 -24 130 -5 45 -14 93 -20 107 -5 15 -15 75 -22 135 -6 59 -15
118 -20 131 -5 12 -13 75 -19 140 -6 64 -15 140 -21 167 -41 199 -36 1168 7
1289 14 41 16 72 11 190 -3 78 -10 161 -15 186 -31 130 -62 319 -71 425 -6 66
-15 136 -21 155 -6 19 -13 95 -17 169 -5 107 -10 141 -27 174 -26 51 -43 57
-57 20z"/>
<path d="M11773 21838 c2 -24 12 -68 22 -98 9 -30 24 -82 32 -115 8 -33 20
-82 28 -110 8 -27 19 -88 25 -135 5 -47 14 -100 20 -119 5 -18 14 -99 20 -180
6 -80 15 -175 20 -211 12 -85 13 -501 0 -610 -5 -47 -14 -166 -20 -265 -6 -99
-15 -205 -20 -235 -5 -30 -14 -120 -20 -200 -6 -80 -17 -181 -25 -225 -7 -44
-17 -114 -20 -155 -3 -41 -12 -109 -20 -150 -8 -41 -17 -124 -20 -185 -3 -60
-13 -148 -22 -195 -33 -180 -33 -964 1 -1014 8 -13 18 -41 22 -62 3 -21 11
-48 17 -58 5 -11 15 -42 23 -70 7 -28 24 -82 39 -121 65 -173 87 -244 116
-375 6 -25 17 -72 26 -105 9 -33 21 -96 28 -140 7 -44 20 -124 30 -178 26
-146 15 -287 -30 -373 -20 -38 -38 -91 -44 -131 -6 -38 -19 -103 -30 -145 -15
-58 -18 -95 -14 -148 5 -58 3 -73 -10 -83 -17 -13 -21 -37 -18 -102 2 -52 17
-30 27 40 3 27 11 53 16 56 6 4 16 35 23 70 19 95 44 196 66 264 10 33 19 66
19 74 0 8 9 33 19 55 48 101 66 195 66 341 0 92 -5 152 -13 175 -7 19 -19 67
-27 105 -13 71 -37 177 -56 250 -6 22 -15 63 -21 90 -16 78 -58 205 -86 260
-13 27 -42 99 -64 160 -22 60 -46 126 -53 145 -14 37 -34 431 -28 555 12 268
25 476 33 510 5 22 14 103 20 180 6 77 17 172 25 210 7 39 16 108 20 155 3 47
13 119 20 160 8 41 19 148 25 236 6 89 14 184 20 210 5 27 17 207 26 400 16
328 16 371 1 636 -9 156 -23 315 -31 353 -8 39 -19 106 -25 150 -5 44 -15 98
-20 120 -6 22 -17 69 -26 105 -33 137 -44 170 -66 211 -13 23 -35 46 -48 51
-22 8 -23 7 -18 -34z"/>
<path d="M6862 17312 c-15 -15 -20 -41 -26 -119 -4 -56 -11 -116 -17 -134 -6
-19 -16 -68 -24 -109 -7 -41 -20 -104 -28 -140 -21 -90 -35 -163 -48 -245 -6
-38 -17 -99 -25 -135 -8 -36 -19 -103 -24 -150 -6 -47 -17 -112 -24 -145 -8
-33 -17 -96 -21 -140 -4 -44 -13 -109 -20 -145 -7 -36 -16 -110 -20 -165 -3
-55 -12 -134 -20 -175 -7 -41 -16 -111 -20 -155 -3 -44 -13 -114 -20 -155 -8
-41 -19 -118 -24 -170 -5 -52 -17 -115 -25 -139 -9 -24 -16 -62 -16 -85 0 -22
-5 -59 -11 -81 -6 -22 -19 -83 -29 -135 -10 -52 -21 -102 -24 -111 -4 -8 -13
-53 -21 -100 -7 -46 -18 -104 -24 -129 -11 -45 -35 -163 -52 -255 -5 -27 -18
-88 -28 -135 -41 -181 -61 -277 -67 -320 -3 -25 -10 -52 -15 -61 -5 -9 -13
-50 -20 -90 -6 -41 -17 -96 -24 -124 -8 -27 -17 -75 -21 -105 -3 -30 -11 -66
-16 -80 -5 -14 -16 -59 -24 -100 -8 -41 -21 -100 -29 -130 -8 -30 -15 -67 -15
-82 0 -15 -9 -50 -20 -78 -11 -28 -20 -67 -20 -88 0 -20 -10 -57 -21 -82 -19
-42 -20 -52 -9 -163 6 -64 8 -122 4 -129 -4 -6 -11 -127 -14 -267 -5 -164 -13
-286 -23 -341 -9 -47 -21 -112 -26 -145 -16 -93 -50 -244 -60 -263 -4 -9 -12
-39 -16 -67 -4 -27 -11 -58 -17 -68 -5 -10 -16 -46 -23 -80 -8 -34 -20 -82
-28 -107 -8 -25 -20 -65 -26 -90 -16 -58 -45 -166 -71 -260 -19 -69 -20 -84
-10 -185 6 -60 19 -144 29 -185 11 -41 22 -104 26 -138 3 -35 10 -75 15 -88 5
-13 14 -66 20 -117 6 -50 16 -105 21 -122 6 -16 19 -97 29 -180 24 -188 36
-262 54 -334 8 -31 19 -105 25 -166 6 -60 15 -126 20 -145 5 -19 13 -64 16
-100 4 -35 13 -81 20 -101 34 -94 44 -794 15 -974 -6 -33 -15 -96 -21 -140 -6
-44 -19 -125 -29 -180 -10 -55 -21 -127 -25 -160 -4 -33 -13 -82 -20 -110 -8
-27 -17 -79 -21 -115 -3 -35 -12 -81 -19 -100 -7 -19 -16 -64 -20 -100 -4 -36
-13 -80 -20 -100 -7 -19 -16 -60 -20 -90 -4 -30 -15 -88 -26 -129 -10 -41 -19
-85 -19 -98 0 -12 -7 -42 -15 -67 -9 -25 -22 -78 -30 -118 -24 -124 -55 -259
-60 -269 -4 -5 -12 -44 -20 -86 -19 -110 -43 -236 -61 -318 -8 -38 -19 -122
-24 -186 -5 -64 -14 -128 -20 -143 -9 -26 -20 -88 -49 -276 -5 -36 -15 -123
-22 -195 -6 -71 -15 -161 -20 -200 -10 -88 -10 -586 1 -720 4 -55 13 -120 19
-145 6 -25 21 -88 32 -140 12 -52 28 -117 37 -145 8 -27 21 -75 28 -105 7 -30
24 -86 39 -125 50 -135 73 -211 83 -278 6 -38 15 -74 21 -81 6 -7 13 -32 16
-56 4 -25 13 -74 20 -110 26 -116 55 -371 64 -556 4 -99 13 -189 18 -198 8
-15 11 -15 27 3 17 18 17 34 6 250 -11 231 -31 380 -95 711 -54 285 -110 500
-140 546 -24 37 -52 127 -65 209 -6 39 -18 89 -26 113 -17 52 -20 547 -4 787
5 83 14 226 20 319 10 163 29 277 70 416 10 36 22 92 25 125 4 33 10 76 15 95
5 19 14 82 20 140 13 121 45 304 65 370 7 25 16 65 20 90 3 25 13 65 20 90 8
25 19 70 24 100 5 30 16 84 25 120 37 152 56 242 56 263 0 13 7 47 15 77 9 30
20 87 26 125 6 39 17 93 24 120 8 28 17 77 20 110 4 33 12 83 20 110 7 28 16
77 19 110 4 33 15 110 26 170 18 105 32 203 51 345 14 111 10 632 -6 755 -8
61 -20 148 -26 195 -5 47 -16 108 -24 135 -7 28 -17 91 -20 140 -4 50 -13 110
-20 135 -8 25 -16 91 -19 148 -4 57 -13 119 -21 138 -8 20 -17 66 -21 102 -3
37 -12 90 -20 117 -7 28 -18 92 -24 142 -5 51 -14 103 -19 116 -5 13 -14 64
-20 115 -6 50 -16 103 -21 117 -13 35 -43 212 -42 255 1 57 21 182 37 225 8
22 21 67 29 100 8 33 26 101 41 150 14 50 30 110 35 135 6 25 17 65 25 90 19
61 43 159 61 250 8 41 19 89 24 105 5 17 14 75 20 131 6 55 15 116 22 135 6
21 12 149 14 334 3 345 11 469 30 507 8 15 14 40 14 55 0 16 7 53 15 83 9 30
22 87 30 125 7 39 21 106 30 150 8 44 22 103 30 130 8 28 17 75 21 105 4 30
12 69 19 87 7 17 16 62 20 100 4 37 14 84 21 105 7 20 15 58 19 85 3 26 15 86
25 133 42 186 59 267 65 310 4 25 13 65 20 90 8 25 17 68 20 95 4 28 13 73 20
100 7 28 16 70 20 95 3 25 14 83 25 130 34 155 43 204 85 435 7 44 17 115 20
158 4 43 11 93 16 110 5 17 14 81 19 142 6 60 17 148 25 195 7 47 16 126 20
175 3 50 12 124 20 165 8 41 19 119 25 172 5 53 14 108 19 121 5 14 14 68 20
120 6 53 15 107 21 121 5 15 15 68 21 119 6 50 15 100 20 109 5 9 13 49 19 90
11 76 58 223 69 212 6 -5 21 -72 51 -219 6 -33 20 -98 30 -145 10 -47 22 -112
25 -145 4 -33 13 -85 20 -115 8 -30 17 -84 20 -120 4 -36 13 -90 20 -120 8
-30 17 -93 20 -140 4 -47 13 -114 20 -150 7 -36 16 -105 19 -155 4 -49 15
-151 26 -225 10 -74 24 -171 30 -215 6 -44 15 -105 21 -135 5 -30 10 -112 10
-182 0 -96 5 -145 20 -195 10 -38 19 -79 19 -93 0 -14 7 -50 15 -80 8 -30 22
-95 29 -145 8 -49 18 -101 24 -115 5 -14 12 -47 16 -75 4 -27 16 -88 26 -135
10 -47 28 -130 40 -185 11 -55 29 -139 40 -186 11 -47 20 -94 20 -104 0 -10 9
-59 21 -109 43 -187 59 -262 65 -311 4 -27 13 -66 20 -86 7 -20 16 -63 19 -95
4 -33 12 -70 18 -84 5 -14 16 -56 22 -95 16 -86 41 -190 65 -270 10 -33 21
-88 25 -123 8 -79 13 -92 35 -92 39 0 33 104 -17 320 -8 36 -21 97 -29 135
-24 127 -44 219 -58 270 -8 28 -17 70 -21 95 -3 25 -14 83 -25 130 -18 84 -32
149 -51 245 -5 28 -18 91 -29 140 -11 50 -29 135 -40 190 -12 55 -30 138 -40
185 -10 47 -22 108 -25 135 -4 28 -13 70 -20 95 -8 25 -17 68 -20 95 -4 28
-13 73 -20 100 -7 28 -18 83 -24 124 -7 40 -16 83 -23 94 -6 11 -14 100 -19
196 -4 97 -13 192 -18 211 -6 19 -16 85 -21 145 -6 61 -17 142 -24 180 -8 39
-17 114 -21 169 -3 54 -12 130 -20 170 -7 39 -16 113 -20 165 -4 52 -12 108
-17 125 -5 17 -15 78 -23 136 -8 58 -20 139 -28 180 -15 76 -29 156 -51 290
-7 41 -20 107 -29 145 -44 188 -57 258 -67 355 -15 135 -17 145 -36 164 -20
21 -30 20 -52 -2z"/>
<path d="M7719 12273 c-16 -42 -6 -496 14 -608 9 -49 20 -119 25 -155 14 -92
40 -217 57 -270 8 -25 17 -63 20 -85 4 -22 12 -56 20 -75 13 -34 33 -107 60
-223 7 -32 21 -76 29 -98 9 -22 16 -48 16 -59 0 -11 9 -46 19 -77 11 -32 22
-76 26 -98 4 -21 13 -52 21 -68 13 -25 13 -34 0 -80 -8 -29 -18 -77 -22 -107
-3 -30 -15 -88 -25 -129 -10 -41 -19 -87 -19 -103 0 -16 -9 -68 -19 -116 -10
-48 -22 -116 -26 -150 -3 -35 -10 -75 -16 -89 -5 -13 -14 -68 -20 -121 -5 -53
-16 -122 -24 -152 -7 -30 -16 -88 -20 -129 -4 -41 -11 -88 -16 -105 -5 -17
-16 -90 -24 -163 -8 -72 -19 -143 -25 -157 -5 -14 -12 -60 -16 -103 -3 -43
-13 -109 -21 -148 -31 -146 -34 -822 -4 -924 6 -18 15 -79 21 -135 6 -55 17
-126 25 -156 7 -30 16 -86 20 -125 3 -38 12 -92 20 -120 7 -27 16 -77 20 -110
3 -33 12 -82 20 -110 7 -27 18 -85 24 -128 6 -43 15 -86 20 -96 5 -9 15 -55
21 -101 6 -46 15 -91 20 -100 4 -8 13 -47 19 -86 6 -39 17 -90 26 -113 8 -24
15 -53 15 -65 0 -12 7 -49 16 -81 9 -33 22 -89 29 -125 7 -36 17 -76 22 -90 6
-14 14 -50 17 -80 4 -30 13 -77 21 -105 7 -27 18 -92 25 -144 6 -51 15 -102
21 -113 6 -10 12 -51 15 -91 3 -40 13 -108 24 -152 10 -44 23 -109 29 -145 6
-36 15 -85 21 -110 19 -89 35 -519 32 -901 -2 -326 -6 -402 -22 -490 -24 -134
-43 -204 -69 -254 -12 -21 -21 -48 -21 -60 0 -11 -7 -42 -15 -70 -9 -27 -13
-61 -10 -75 3 -14 1 -50 -4 -82 -16 -97 9 -138 28 -46 7 28 16 57 21 63 12 15
70 192 70 214 0 9 9 43 20 76 11 33 29 105 41 160 11 55 26 118 31 140 25 96
37 645 18 825 -5 47 -14 153 -20 235 -11 148 -29 279 -56 405 -8 36 -21 119
-29 184 -8 66 -21 149 -30 185 -8 37 -19 93 -24 126 -11 71 -36 202 -52 265
-20 80 -50 213 -64 290 -8 41 -19 86 -25 100 -6 14 -17 59 -24 100 -20 100
-34 168 -56 270 -11 47 -22 108 -25 135 -4 28 -13 70 -20 95 -8 25 -17 72 -20
105 -4 33 -13 83 -20 110 -8 28 -19 92 -25 142 -6 51 -14 103 -19 116 -5 12
-14 70 -20 128 -6 58 -16 121 -22 140 -37 126 -36 882 1 1009 6 19 15 78 21
130 6 52 17 122 24 155 7 33 16 97 20 142 3 46 11 98 16 115 5 18 16 86 24
151 8 65 17 122 20 127 3 5 12 56 20 112 8 57 21 137 29 178 8 41 19 107 25
145 17 110 31 182 54 285 30 131 30 326 0 420 -11 36 -26 85 -32 110 -7 25
-21 77 -31 115 -11 39 -26 97 -35 130 -8 33 -22 80 -30 105 -8 25 -17 63 -21
85 -4 22 -11 48 -16 57 -10 21 -45 176 -59 268 -6 36 -17 99 -25 140 -9 41
-19 174 -25 295 -8 211 -22 366 -34 386 -11 17 -25 9 -36 -18z"/>
<path d="M9165 3589 c-27 -83 89 -420 304 -881 16 -35 41 -92 56 -128 14 -36
32 -78 40 -95 24 -52 76 -170 115 -260 60 -142 135 -285 152 -291 22 -7 38 2
38 22 0 8 -29 74 -64 147 -109 225 -138 291 -253 562 -14 33 -34 78 -44 101
-10 22 -19 43 -19 47 0 3 -16 41 -36 84 -20 43 -45 97 -55 121 -11 23 -28 61
-38 85 -11 23 -26 60 -34 82 -8 22 -27 72 -41 110 -14 39 -37 117 -52 175 -28
112 -39 140 -54 140 -5 0 -12 -9 -15 -21z"/>
<path d="M8092 2875 c-18 -116 -20 -127 -35 -195 -33 -146 -49 -251 -58 -370
-5 -69 -14 -170 -20 -225 -6 -55 -9 -129 -7 -165 3 -58 5 -65 25 -68 29 -4 30
1 43 243 6 110 22 274 36 365 33 216 50 433 37 463 -9 19 -12 11 -21 -48z"/>
<path d="M3930 1796 c0 -26 41 -57 160 -118 126 -65 432 -178 482 -178 10 0
38 -7 63 -16 123 -41 667 -65 913 -40 86 9 179 18 206 21 45 4 96 34 96 56 0
15 -43 16 -132 1 -144 -25 -789 -24 -953 1 -158 24 -357 77 -460 122 -81 36
-245 119 -285 145 -58 37 -90 39 -90 6z"/>
<path d="M9770 1803 c-14 -9 -37 -24 -51 -34 -32 -21 -170 -92 -224 -114 -162
-67 -318 -108 -510 -135 -197 -28 -699 -31 -864 -6 -115 18 -191 21 -191 8 0
-23 50 -53 96 -57 27 -3 119 -12 205 -21 237 -24 701 -7 869 33 36 8 88 19
115 24 28 5 66 15 85 22 19 8 73 27 120 42 108 37 212 83 323 147 78 44 87 52
87 79 0 34 -20 38 -60 12z"/>
</g>
</svg>
