<?xml version="1.0" standalone="no"?>
<!DOCTYPE svg PUBLIC "-//W3C//DTD SVG 20010904//EN"
 "http://www.w3.org/TR/2001/REC-SVG-20010904/DTD/svg10.dtd">
<svg version="1.0" xmlns="http://www.w3.org/2000/svg"
 width="1375.000000pt" height="3583.000000pt" viewBox="0 0 1375.000000 3583.000000"
 preserveAspectRatio="xMidYMid meet">

<g transform="translate(0.000000,3583.000000) scale(0.100000,-0.100000)"
fill="#000000" stroke="none">
<path d="M6480 34580 c-47 -5 -102 -16 -122 -24 -21 -9 -45 -16 -54 -16 -30 0
-159 -63 -242 -118 -142 -93 -322 -286 -406 -433 -50 -88 -100 -191 -128 -264
-16 -44 -37 -96 -44 -115 -8 -19 -22 -62 -30 -95 -15 -57 -22 -89 -58 -260 -8
-38 -23 -167 -32 -285 -14 -184 -15 -239 -5 -380 20 -269 30 -365 39 -391 5
-13 12 -51 16 -84 16 -144 136 -576 192 -688 8 -16 14 -34 14 -40 0 -6 9 -29
19 -51 57 -123 68 -155 64 -179 -5 -27 9 -101 32 -172 19 -57 45 -167 60 -255
7 -41 17 -86 23 -100 5 -14 13 -54 16 -90 4 -36 13 -87 21 -115 8 -27 19 -113
25 -190 13 -153 5 -219 -28 -229 -17 -6 -73 -62 -352 -352 -205 -212 -402
-354 -680 -486 -66 -32 -101 -47 -235 -102 -16 -7 -77 -27 -135 -45 -58 -17
-125 -38 -150 -46 -25 -8 -75 -19 -112 -25 -37 -5 -78 -14 -92 -19 -13 -6 -68
-15 -122 -21 -55 -6 -115 -15 -134 -20 -19 -5 -96 -14 -170 -20 -74 -5 -151
-14 -170 -20 -19 -5 -84 -14 -144 -20 -106 -9 -152 -17 -286 -44 -66 -14 -75
-17 -215 -68 -79 -29 -217 -95 -285 -136 -19 -12 -48 -29 -65 -38 -67 -38
-218 -170 -275 -241 -92 -114 -167 -246 -227 -403 -58 -150 -74 -198 -85 -255
-5 -27 -15 -68 -22 -90 -8 -22 -17 -71 -21 -110 -4 -38 -13 -97 -20 -130 -7
-33 -16 -112 -20 -175 -3 -63 -15 -196 -27 -295 -17 -154 -19 -214 -13 -420 4
-132 11 -285 16 -340 5 -55 13 -167 19 -250 6 -82 17 -181 25 -220 8 -38 17
-106 21 -150 3 -44 12 -107 19 -140 7 -33 19 -107 25 -165 7 -58 16 -115 21
-127 5 -13 4 -45 -1 -74 -5 -28 -15 -101 -20 -162 -6 -62 -17 -134 -25 -162
-7 -27 -16 -79 -20 -115 -4 -36 -13 -92 -20 -125 -7 -33 -16 -107 -20 -165 -3
-58 -14 -145 -23 -195 -14 -77 -15 -171 -13 -670 2 -419 6 -611 16 -690 8 -60
17 -146 20 -190 4 -44 13 -105 20 -135 8 -30 19 -100 24 -155 6 -55 22 -136
36 -180 31 -101 31 -120 -1 -181 -26 -49 -40 -92 -69 -214 -9 -36 -20 -83 -26
-105 -5 -22 -16 -86 -24 -142 -8 -56 -19 -121 -24 -145 -25 -110 -49 -610 -39
-818 13 -288 30 -546 39 -593 5 -27 13 -119 19 -205 6 -86 17 -191 24 -232 8
-41 17 -115 21 -165 4 -49 13 -117 20 -150 8 -33 17 -112 20 -175 4 -63 13
-149 21 -190 8 -41 19 -172 25 -290 14 -271 -1 -785 -26 -843 -8 -20 -15 -49
-15 -64 -1 -15 -8 -46 -16 -68 -9 -22 -22 -62 -29 -90 -8 -27 -21 -70 -29 -95
-9 -25 -29 -90 -46 -145 -17 -55 -42 -120 -56 -145 -14 -24 -32 -69 -40 -100
-8 -30 -27 -98 -41 -150 -14 -52 -31 -120 -38 -152 -7 -31 -16 -62 -20 -69
-16 -25 -49 -196 -49 -254 0 -44 9 -82 33 -145 76 -196 121 -340 121 -385 1
-16 9 -48 20 -70 11 -22 19 -58 20 -80 0 -23 10 -59 21 -80 15 -28 23 -62 25
-110 1 -38 3 -77 4 -85 1 -29 83 -106 127 -118 47 -14 57 -28 66 -86 3 -21 18
-56 33 -77 25 -37 29 -39 81 -39 29 0 69 6 88 14 19 8 37 12 39 8 3 -4 8 -35
11 -68 6 -48 13 -68 37 -93 28 -30 33 -32 96 -29 l66 3 9 40 c10 50 41 74 106
82 43 5 56 12 99 58 91 96 87 80 87 337 0 253 -2 246 70 266 23 6 52 24 66 39
27 30 69 130 69 166 0 12 10 42 21 66 32 71 41 253 29 588 -6 158 -15 308 -20
333 -6 25 -16 92 -25 150 -13 99 -24 160 -61 360 -9 47 -19 138 -22 202 -4 98
-2 121 12 143 9 14 23 55 30 92 8 38 19 82 24 98 28 78 52 170 62 231 6 37 14
72 17 78 4 5 15 53 24 106 34 181 40 215 59 300 10 47 22 108 25 135 4 28 13
73 20 100 7 28 16 77 20 109 4 33 11 71 16 85 6 14 16 71 24 127 8 56 19 112
24 125 5 13 12 58 16 99 3 41 13 102 20 136 8 34 19 110 25 170 6 60 15 125
20 144 25 94 33 374 39 1310 6 975 6 985 27 1025 13 25 25 78 33 143 7 56 18
126 26 155 7 28 16 81 20 117 3 36 12 88 20 115 7 28 16 77 20 110 4 33 13 83
20 110 8 28 19 89 25 138 6 48 15 98 20 111 5 13 14 68 20 122 6 54 17 134 25
179 8 44 19 134 25 200 6 66 15 147 20 180 11 81 11 810 -1 910 -20 175 -22
461 -5 594 9 69 20 164 26 211 9 82 21 165 42 279 5 29 13 49 17 45 9 -11 48
-155 56 -209 4 -22 14 -51 23 -65 15 -23 37 -77 65 -160 6 -19 28 -65 49 -102
21 -37 38 -79 38 -92 0 -14 7 -43 15 -63 8 -21 21 -67 29 -103 8 -36 24 -94
35 -130 11 -36 29 -94 40 -130 28 -90 50 -159 66 -200 7 -19 34 -102 60 -185
26 -82 55 -173 66 -200 10 -28 19 -57 19 -65 1 -8 8 -33 16 -55 16 -42 45
-143 69 -235 15 -61 37 -142 64 -240 10 -36 29 -110 41 -165 12 -55 30 -136
40 -180 10 -44 21 -107 24 -140 4 -32 13 -82 21 -110 7 -27 17 -81 20 -119 4
-38 13 -85 20 -105 7 -20 15 -63 19 -96 4 -33 13 -82 21 -110 7 -27 19 -93 25
-145 6 -52 15 -111 21 -130 17 -61 35 -417 26 -545 -10 -160 -25 -249 -92
-525 -13 -54 -35 -124 -57 -185 -5 -16 -16 -50 -24 -75 -7 -25 -27 -83 -44
-130 -17 -47 -37 -105 -44 -130 -8 -25 -26 -76 -41 -115 -14 -38 -33 -90 -41
-114 -7 -24 -18 -49 -23 -55 -5 -6 -12 -27 -16 -46 -4 -19 -16 -51 -26 -70
-11 -19 -19 -42 -19 -50 -1 -8 -9 -33 -20 -55 -11 -22 -20 -47 -20 -55 0 -8
-9 -28 -20 -45 -11 -16 -20 -35 -20 -41 0 -6 -35 -90 -79 -185 -43 -96 -82
-190 -86 -209 -4 -19 -13 -48 -20 -65 -20 -48 -62 -187 -70 -229 -3 -21 -12
-52 -19 -70 -15 -35 -40 -129 -60 -222 -7 -34 -16 -66 -20 -72 -4 -7 -13 -44
-20 -84 -8 -40 -21 -104 -30 -143 -44 -186 -56 -244 -56 -266 0 -14 -7 -51
-15 -84 -9 -32 -22 -104 -30 -159 -7 -56 -23 -146 -34 -201 -38 -193 -40 -226
-71 -1065 -12 -324 -12 -677 0 -943 5 -114 14 -316 20 -450 6 -133 17 -289 25
-347 8 -58 17 -157 20 -220 3 -63 13 -158 20 -210 8 -52 19 -163 25 -246 6
-83 15 -166 20 -184 5 -18 14 -101 20 -184 6 -83 15 -167 20 -186 5 -19 14
-98 20 -175 6 -77 15 -156 21 -175 5 -19 14 -78 20 -130 5 -52 16 -120 24
-150 7 -30 16 -80 20 -110 3 -30 12 -77 20 -105 7 -27 18 -82 24 -122 6 -39
15 -82 20 -95 5 -14 12 -51 16 -84 5 -32 16 -88 26 -124 11 -36 19 -78 19 -95
0 -44 44 -216 62 -245 10 -16 18 -63 22 -130 4 -58 13 -150 21 -205 7 -55 16
-158 20 -230 3 -71 13 -211 22 -310 10 -119 14 -230 10 -330 -3 -82 -1 -260 5
-393 9 -228 8 -250 -11 -345 -11 -56 -23 -131 -26 -167 -3 -36 -12 -87 -20
-115 -7 -27 -16 -81 -20 -120 -4 -38 -13 -97 -21 -130 -7 -33 -18 -106 -24
-161 -6 -56 -15 -117 -20 -135 -6 -19 -15 -84 -21 -146 -5 -61 -14 -127 -20
-145 -5 -18 -14 -87 -19 -153 -6 -66 -15 -142 -21 -170 -5 -27 -16 -133 -24
-235 -9 -102 -19 -232 -25 -290 -12 -138 -12 -537 1 -670 5 -58 16 -188 24
-290 7 -102 18 -207 24 -235 6 -27 15 -102 21 -165 5 -63 14 -130 20 -149 5
-19 14 -80 20 -135 6 -56 15 -114 20 -131 5 -16 16 -77 25 -135 16 -112 27
-179 52 -300 25 -125 42 -240 37 -254 -3 -7 2 -33 10 -57 8 -24 29 -107 46
-184 17 -77 34 -143 37 -148 3 -4 9 -53 14 -107 4 -55 12 -108 18 -117 10 -19
45 -171 67 -293 8 -41 20 -91 28 -111 8 -20 18 -65 22 -100 4 -35 13 -77 20
-94 6 -16 15 -61 19 -100 4 -38 14 -83 21 -100 7 -16 17 -65 23 -108 6 -43 15
-87 21 -97 5 -10 14 -58 20 -107 5 -49 14 -103 20 -119 6 -16 17 -78 25 -139
26 -199 36 -269 49 -343 12 -63 11 -83 -4 -155 -26 -124 -90 -333 -110 -362
-4 -5 -11 -21 -15 -35 -4 -14 -15 -43 -25 -65 -10 -22 -30 -69 -46 -105 -15
-36 -43 -99 -62 -140 -19 -41 -43 -94 -53 -117 -11 -24 -28 -62 -38 -85 -11
-24 -34 -77 -51 -118 -18 -41 -47 -108 -66 -148 -19 -40 -34 -76 -34 -79 0 -7
-11 -31 -85 -188 -51 -107 -66 -167 -45 -180 20 -13 43 27 131 225 45 102 88
196 95 210 7 14 22 46 33 72 29 67 59 133 91 203 15 33 38 83 50 110 12 28 28
64 36 80 65 142 166 400 202 515 66 207 80 323 57 445 -8 44 -22 134 -30 200
-8 66 -19 133 -25 150 -5 16 -14 68 -20 115 -5 47 -17 107 -25 134 -8 27 -15
61 -15 75 0 15 -7 51 -15 81 -8 30 -21 91 -29 135 -8 44 -19 92 -24 106 -6 14
-13 52 -17 85 -4 32 -13 75 -21 94 -7 19 -18 68 -24 109 -6 40 -14 81 -19 90
-5 9 -11 39 -15 66 -4 28 -15 88 -25 135 -19 82 -32 149 -53 255 -5 28 -18 88
-28 135 -11 47 -22 110 -26 140 -3 30 -10 66 -15 79 -5 12 -16 67 -24 121 -8
54 -19 109 -24 121 -5 13 -12 53 -15 89 -4 36 -14 88 -21 115 -8 28 -17 79
-20 115 -4 36 -16 104 -26 152 -10 48 -19 101 -19 117 0 16 -9 74 -19 128 -10
54 -22 140 -26 191 -3 51 -11 107 -16 125 -5 17 -16 113 -24 212 -9 99 -20
209 -25 245 -13 85 -12 824 0 915 6 39 17 146 25 239 8 93 19 192 24 220 6 28
15 103 21 166 5 63 14 130 19 148 5 18 15 84 21 147 6 63 16 129 21 147 5 18
14 78 20 133 5 55 16 125 24 155 7 30 16 87 20 125 4 39 13 93 20 120 8 28 17
84 20 125 4 41 16 116 26 165 25 120 27 391 3 461 -13 37 -15 83 -12 233 3
210 -16 623 -37 781 -8 58 -17 148 -20 200 -9 143 -34 287 -61 344 -13 28 -24
65 -24 82 0 16 -9 64 -19 105 -11 41 -22 99 -26 129 -4 30 -11 63 -16 72 -5 9
-14 52 -19 95 -6 43 -17 98 -25 123 -7 25 -16 72 -20 105 -3 33 -12 81 -20
106 -7 26 -16 77 -20 115 -4 38 -13 96 -20 130 -8 33 -19 119 -25 190 -6 71
-15 145 -20 164 -5 19 -14 106 -20 192 -6 86 -15 172 -21 190 -5 18 -14 96
-19 173 -6 77 -17 185 -25 240 -8 55 -17 150 -20 210 -3 61 -12 155 -20 210
-7 55 -17 165 -20 245 -4 80 -13 218 -21 308 -16 189 -20 1378 -4 1597 5 72
14 229 21 350 9 171 15 231 30 268 12 30 19 73 19 115 0 37 6 92 14 122 8 30
19 97 25 147 6 51 16 104 21 117 5 13 14 61 20 107 6 46 16 91 20 100 5 9 15
50 21 90 6 41 15 82 20 91 5 10 16 50 23 90 18 95 44 204 61 248 7 19 20 62
28 95 8 33 24 92 35 130 11 39 28 95 36 125 9 30 23 69 31 87 8 17 15 34 15
38 0 4 8 19 19 33 10 15 21 44 25 64 4 20 16 59 27 85 42 97 73 168 112 253 9
19 23 53 31 75 8 22 26 72 40 110 15 39 33 88 41 110 7 22 25 72 40 110 53
142 67 181 80 225 8 25 28 83 45 130 17 47 36 102 41 124 5 21 14 47 20 58 12
23 45 140 64 231 8 37 19 75 24 85 5 9 12 44 16 77 3 33 13 84 21 113 32 114
35 571 5 704 -6 25 -15 91 -21 145 -6 54 -17 121 -25 148 -7 28 -16 75 -20
105 -3 30 -13 78 -20 105 -8 28 -18 86 -24 130 -5 45 -14 92 -19 105 -5 14
-13 54 -16 90 -4 36 -14 92 -22 125 -8 33 -21 94 -29 135 -24 125 -37 183 -52
235 -9 28 -22 77 -29 110 -7 33 -25 101 -39 150 -14 50 -34 119 -45 155 -10
36 -28 97 -40 135 -12 39 -28 93 -36 120 -7 28 -20 66 -28 85 -7 19 -26 76
-41 125 -15 50 -33 106 -40 125 -8 19 -17 46 -20 60 -3 14 -12 41 -19 60 -18
46 -49 146 -131 425 -15 50 -33 101 -40 115 -7 14 -15 41 -19 60 -3 19 -21 66
-40 103 -19 38 -38 83 -41 100 -4 18 -13 41 -20 52 -7 11 -17 43 -23 70 -6 28
-18 64 -26 80 -9 17 -16 42 -16 56 0 14 -7 48 -15 75 -14 43 -34 181 -52 356
-6 60 -22 84 -48 74 -28 -10 -42 -69 -49 -201 -3 -71 -10 -146 -16 -165 -6
-19 -15 -89 -20 -155 -6 -66 -17 -151 -25 -190 -43 -206 -57 -303 -62 -441 -5
-127 -3 -160 11 -200 38 -109 46 -1013 12 -1216 -8 -46 -18 -121 -21 -168 -4
-47 -15 -134 -25 -195 -10 -60 -24 -141 -29 -180 -20 -129 -33 -199 -52 -290
-10 -49 -21 -114 -25 -143 -3 -29 -12 -76 -20 -105 -8 -28 -14 -82 -14 -119 0
-40 -8 -92 -19 -125 -11 -32 -22 -81 -25 -110 -4 -28 -13 -68 -21 -87 -26 -63
-35 -342 -35 -1161 0 -439 -4 -826 -10 -870 -5 -44 -14 -148 -20 -231 -6 -83
-15 -166 -20 -185 -6 -18 -15 -83 -21 -143 -6 -60 -15 -120 -20 -133 -5 -13
-14 -65 -20 -116 -6 -50 -16 -117 -24 -147 -7 -30 -16 -80 -20 -110 -3 -30
-12 -77 -20 -105 -7 -27 -16 -75 -20 -105 -3 -30 -13 -77 -20 -105 -8 -27 -19
-86 -25 -130 -5 -44 -17 -102 -25 -129 -8 -27 -15 -60 -15 -74 0 -23 -13 -84
-56 -267 -9 -38 -21 -97 -26 -130 -6 -33 -16 -71 -23 -85 -7 -14 -16 -43 -19
-65 -8 -45 -42 -149 -58 -179 -18 -33 -20 -229 -4 -319 8 -45 17 -109 21 -142
3 -33 12 -82 20 -110 7 -27 16 -84 20 -125 4 -41 14 -95 21 -120 18 -58 17
-89 -1 -134 -13 -31 -14 -50 -5 -114 6 -42 11 -207 13 -367 1 -240 -1 -309
-16 -400 -15 -91 -23 -115 -44 -137 -15 -16 -29 -28 -32 -28 -4 0 -19 12 -34
26 l-27 25 0 187 c0 258 -9 693 -16 703 -8 13 -38 11 -52 -3 -15 -15 -16 -186
-1 -297 8 -59 8 -89 0 -109 -7 -18 -12 -197 -15 -522 -3 -477 -4 -498 -26
-568 -21 -68 -46 -102 -76 -102 -6 0 -23 37 -37 83 -26 81 -27 87 -31 442 -3
276 -8 373 -19 415 -8 30 -18 81 -22 113 -7 60 -26 90 -54 85 -22 -4 -26 -75
-7 -141 21 -77 26 -145 37 -542 6 -198 12 -392 15 -430 4 -55 1 -81 -14 -120
-24 -61 -40 -72 -77 -54 -20 10 -32 27 -42 59 -21 71 -43 374 -43 605 0 376
-39 590 -97 532 -14 -14 -14 -25 2 -109 13 -72 19 -182 25 -483 l8 -390 -26
-22 c-27 -22 -68 -29 -87 -15 -36 26 -49 69 -56 197 -4 71 -12 156 -18 189 -6
32 -13 123 -16 202 -4 93 -12 169 -25 216 -11 40 -20 99 -20 130 0 65 -12 98
-42 117 -30 18 -41 2 -46 -69 -3 -47 0 -71 18 -111 15 -37 23 -80 27 -148 3
-54 13 -121 24 -154 14 -41 19 -85 19 -161 0 -119 -9 -151 -45 -168 -23 -10
-29 -8 -58 20 -30 30 -32 36 -37 129 -3 54 -11 107 -17 118 -6 12 -15 50 -18
85 -4 36 -13 88 -20 115 -8 28 -17 75 -20 105 -7 58 -47 207 -65 239 -15 29
-12 277 4 341 7 30 17 73 20 95 4 22 25 94 47 160 21 66 46 143 55 170 9 28
23 75 30 105 22 93 44 174 55 195 5 11 16 43 24 70 8 28 26 88 40 135 15 47
32 112 39 145 7 33 20 81 29 107 14 40 16 103 13 495 -2 290 -7 462 -14 488
-7 22 -16 105 -22 185 -6 80 -17 179 -25 220 -8 41 -17 113 -20 160 -4 47 -13
114 -20 150 -8 36 -16 110 -20 165 -3 55 -13 150 -20 210 -8 61 -19 187 -25
280 -6 94 -15 202 -20 240 -12 93 -12 602 0 686 5 37 14 129 20 205 6 76 17
163 24 194 8 30 17 84 21 118 3 35 11 76 16 90 6 15 15 52 20 82 6 30 19 80
29 110 10 30 23 75 30 100 7 25 17 57 22 71 15 41 12 78 -10 154 -11 39 -23
106 -27 150 -3 44 -12 105 -20 135 -7 30 -16 89 -20 130 -3 41 -13 116 -22
165 -24 140 -25 1359 -1 1495 9 52 19 138 23 190 3 52 12 122 20 155 8 33 19
96 25 140 6 44 15 94 20 110 11 36 30 244 30 337 0 37 -11 122 -24 190 -14 68
-28 159 -31 203 -4 44 -13 107 -20 140 -7 33 -18 123 -25 199 -6 77 -13 143
-16 148 -3 5 -12 156 -19 336 -11 273 -11 359 1 530 7 112 16 207 18 211 3 4
10 74 16 157 6 82 17 181 25 219 8 39 17 93 21 120 10 82 87 344 111 380 7 11
13 26 13 35 0 20 82 180 126 248 92 139 185 231 324 323 82 55 223 130 305
164 69 29 217 75 240 75 13 0 41 7 65 15 23 8 92 20 153 25 62 6 128 15 147
20 19 5 96 14 170 20 74 6 151 15 170 20 19 5 82 14 139 20 57 5 121 15 142
20 21 6 70 16 111 24 93 17 203 44 248 61 19 7 73 25 120 40 47 15 99 33 115
40 17 8 68 30 115 50 89 38 273 133 319 164 14 10 46 31 71 47 180 115 272
198 554 497 119 127 154 154 171 128 8 -13 -13 -184 -30 -251 -8 -30 -26 -104
-41 -165 -30 -122 -63 -202 -106 -256 -36 -47 -37 -85 -2 -101 24 -11 29 -10
50 17 41 50 85 155 115 269 5 21 16 50 23 65 7 14 16 53 20 86 4 33 14 96 23
140 23 117 23 585 1 670 -9 33 -19 91 -23 129 -4 38 -13 86 -20 107 -8 21 -17
67 -21 101 -4 35 -13 80 -20 102 -9 25 -11 43 -4 55 5 9 10 11 10 4 0 -7 13
-26 30 -43 16 -17 33 -42 36 -55 3 -14 9 -25 13 -25 4 0 23 -24 41 -52 124
-193 345 -440 525 -587 136 -112 328 -231 371 -231 20 0 105 44 174 89 64 42
218 157 241 180 9 9 47 45 85 82 132 125 303 327 378 447 15 23 34 51 44 60 9
10 25 34 34 55 10 20 24 37 31 37 7 0 18 12 25 28 11 27 11 27 8 -8 -9 -81
-28 -188 -41 -230 -7 -25 -16 -72 -20 -105 -4 -33 -14 -87 -23 -120 -24 -88
-24 -596 0 -705 9 -41 20 -95 23 -120 4 -25 15 -71 26 -103 10 -31 19 -63 19
-69 0 -15 32 -99 69 -180 22 -51 29 -58 54 -58 27 0 29 2 24 33 -2 17 -14 57
-26 87 -44 110 -80 226 -90 288 -5 34 -13 67 -16 72 -6 10 -34 210 -35 248 0
16 6 22 23 22 16 0 58 -37 147 -132 298 -319 396 -402 665 -570 58 -36 208
-112 295 -148 41 -17 89 -37 105 -45 65 -28 252 -89 310 -101 17 -3 46 -12 65
-19 19 -7 60 -16 90 -20 30 -4 80 -13 111 -21 31 -8 103 -19 160 -24 57 -6
120 -15 139 -20 19 -5 96 -14 170 -20 74 -6 151 -15 170 -20 19 -5 82 -14 140
-20 140 -13 334 -60 435 -105 232 -101 418 -219 522 -329 38 -39 93 -110 124
-156 75 -118 78 -122 89 -150 6 -14 17 -36 24 -50 43 -77 141 -398 152 -500 3
-30 12 -80 19 -110 8 -30 16 -104 20 -165 3 -60 11 -144 16 -185 32 -244 37
-401 24 -728 -8 -177 -16 -326 -19 -330 -2 -4 -10 -73 -16 -152 -6 -80 -17
-174 -25 -210 -7 -36 -16 -101 -20 -145 -3 -44 -12 -109 -20 -145 -38 -181
-39 -478 -1 -629 8 -31 17 -83 21 -116 3 -33 13 -85 20 -115 7 -30 16 -100 20
-155 3 -55 14 -143 23 -195 15 -83 17 -172 15 -730 -2 -492 -6 -656 -17 -730
-8 -52 -17 -129 -21 -170 -4 -41 -13 -96 -20 -122 -7 -25 -17 -88 -21 -140 -3
-51 -13 -113 -20 -138 -16 -52 -18 -136 -5 -145 15 -8 59 88 80 174 11 42 22
112 26 156 3 44 12 105 20 135 7 30 16 89 20 130 3 41 12 134 20 205 10 92 15
287 16 670 2 457 0 556 -14 645 -9 58 -21 157 -26 220 -11 120 -31 256 -56
375 -8 39 -20 117 -25 175 -6 58 -15 121 -20 140 -13 47 -13 173 1 187 5 5 17
54 25 108 8 54 16 101 19 104 2 4 9 56 15 117 6 60 17 143 25 184 8 41 19 143
25 225 5 83 14 206 19 275 23 297 23 506 2 690 -11 96 -23 229 -26 295 -4 66
-11 140 -16 165 -6 25 -16 88 -23 140 -21 145 -67 326 -107 418 -11 23 -19 47
-19 53 0 10 -33 84 -75 169 -84 171 -237 350 -383 449 -216 146 -433 241 -642
281 -52 10 -102 21 -110 24 -8 3 -69 10 -135 16 -66 6 -136 15 -155 20 -19 5
-96 14 -170 20 -74 6 -151 15 -170 20 -19 5 -75 14 -125 19 -85 10 -127 18
-285 56 -192 46 -237 61 -422 136 -83 34 -328 157 -378 189 -25 16 -52 33 -60
37 -73 33 -305 230 -425 360 -186 200 -279 294 -312 314 -23 15 -34 30 -39 57
-9 46 12 308 31 382 7 30 17 82 21 115 4 33 11 71 16 85 6 14 16 59 23 100 15
85 38 185 66 280 11 36 19 89 19 118 0 32 7 68 19 90 30 60 57 122 86 202 25
68 36 98 75 210 15 44 45 159 70 268 11 46 22 87 25 91 3 5 10 44 15 87 6 44
17 106 25 139 22 97 39 438 31 645 -13 334 -31 444 -123 740 -15 47 -30 92
-34 100 -5 8 -25 53 -45 99 -141 324 -382 581 -654 699 -140 61 -359 94 -511
78 -88 -10 -100 -18 -70 -50 22 -24 28 -25 100 -20 92 7 318 -19 360 -40 16
-9 36 -16 44 -16 35 0 187 -89 276 -160 177 -144 314 -334 414 -575 44 -107
67 -170 67 -183 0 -6 9 -38 19 -69 11 -32 23 -78 26 -103 4 -25 13 -67 20 -95
8 -27 16 -86 20 -130 3 -44 11 -116 16 -160 14 -101 14 -377 0 -481 -5 -43
-13 -119 -16 -169 -4 -49 -13 -117 -21 -150 -8 -33 -18 -91 -24 -130 -5 -38
-16 -88 -25 -110 -8 -22 -14 -51 -15 -65 0 -14 -9 -52 -20 -85 -19 -59 -38
-118 -65 -205 -26 -87 -56 -165 -65 -174 -6 -6 -10 -17 -10 -25 0 -17 -17 -54
-120 -266 -43 -88 -90 -177 -104 -198 -14 -21 -26 -41 -26 -44 0 -3 -16 -30
-35 -59 -19 -29 -35 -55 -35 -59 0 -3 -5 -11 -10 -18 -6 -7 -54 -70 -108 -142
-169 -226 -453 -493 -634 -595 -32 -17 -61 -36 -64 -41 -9 -15 -70 -10 -84 6
-7 8 -17 15 -23 15 -6 0 -42 21 -81 47 -221 147 -438 361 -619 608 -37 50 -70
95 -75 100 -53 67 -234 406 -301 565 -17 41 -38 89 -45 105 -46 104 -110 303
-142 445 -8 36 -21 83 -28 105 -7 22 -17 69 -20 103 -4 35 -12 76 -17 90 -6
15 -17 92 -25 172 -8 80 -19 186 -24 235 -14 138 -12 258 10 463 37 347 99
574 226 827 104 205 268 398 425 501 70 46 184 104 204 104 9 0 30 7 47 16 41
21 276 47 364 40 66 -5 73 -4 93 18 l23 24 -24 13 c-28 16 -202 20 -318 9z"/>
<path d="M10039 26213 c-6 -15 -17 -86 -25 -158 -22 -202 -79 -452 -124 -540
-11 -21 -20 -45 -20 -52 0 -8 -16 -46 -35 -85 -20 -39 -40 -88 -45 -107 -5
-20 -21 -70 -36 -111 -25 -72 -39 -118 -82 -275 -11 -38 -24 -81 -30 -95 -5
-14 -31 -92 -57 -175 -26 -82 -53 -166 -60 -185 -8 -19 -19 -55 -25 -79 -6
-24 -15 -51 -20 -60 -10 -19 -47 -135 -65 -206 -8 -27 -25 -88 -40 -135 -14
-47 -32 -110 -40 -140 -15 -60 -36 -139 -65 -240 -19 -71 -31 -125 -60 -272
-10 -54 -21 -102 -24 -107 -4 -5 -11 -47 -16 -93 -6 -46 -15 -96 -20 -112 -5
-15 -15 -67 -20 -115 -6 -47 -17 -108 -25 -136 -8 -27 -17 -77 -21 -110 -4
-33 -12 -76 -19 -96 -7 -20 -16 -71 -20 -115 -4 -43 -13 -109 -21 -145 -38
-188 -38 -637 1 -763 8 -27 15 -61 15 -75 0 -15 7 -54 16 -86 9 -33 20 -80 25
-105 9 -49 34 -131 86 -285 19 -55 38 -117 44 -138 5 -21 14 -45 19 -55 10
-17 39 -99 65 -182 17 -54 46 -131 69 -182 9 -21 16 -43 16 -50 1 -7 9 -31 20
-53 11 -22 20 -47 20 -55 0 -8 9 -33 20 -55 11 -22 19 -45 20 -51 0 -6 21 -57
46 -115 25 -57 55 -124 66 -149 11 -25 23 -52 28 -61 22 -42 97 -250 130 -359
75 -249 88 -298 134 -495 9 -38 21 -88 27 -110 6 -22 17 -73 24 -112 8 -40 21
-96 29 -125 8 -29 17 -78 21 -108 3 -30 12 -77 20 -105 7 -27 16 -80 20 -117
4 -37 13 -91 21 -120 7 -29 14 -81 14 -114 0 -34 9 -88 19 -121 15 -45 22
-115 30 -289 6 -126 16 -299 21 -384 12 -199 12 -1235 0 -1405 -5 -71 -14
-224 -20 -340 -6 -115 -17 -257 -25 -315 -8 -58 -17 -154 -20 -215 -3 -60 -12
-155 -20 -210 -8 -55 -19 -163 -25 -240 -5 -77 -14 -156 -19 -175 -6 -19 -15
-102 -21 -183 -5 -82 -14 -167 -20 -190 -5 -23 -14 -103 -20 -177 -6 -74 -15
-148 -20 -165 -5 -16 -14 -73 -20 -125 -7 -52 -18 -117 -25 -145 -8 -27 -17
-79 -21 -115 -3 -35 -12 -81 -19 -101 -7 -20 -16 -63 -20 -95 -4 -33 -13 -79
-20 -104 -8 -25 -19 -78 -25 -119 -6 -40 -14 -81 -19 -90 -5 -9 -14 -53 -20
-99 -6 -45 -19 -101 -30 -125 -26 -57 -48 -180 -57 -307 -3 -58 -10 -127 -15
-155 -17 -96 -43 -562 -45 -805 -1 -147 -6 -259 -13 -280 -19 -60 -14 -357 8
-468 11 -54 23 -128 26 -167 4 -38 13 -95 20 -125 8 -30 18 -97 24 -147 6 -51
15 -103 20 -116 5 -13 14 -73 20 -133 6 -60 16 -125 21 -144 5 -18 14 -81 20
-139 6 -58 15 -122 20 -141 6 -19 15 -89 20 -155 6 -66 15 -142 21 -170 6 -27
17 -129 25 -225 8 -96 19 -209 24 -250 15 -123 12 -747 -4 -885 -8 -66 -18
-169 -21 -230 -4 -60 -13 -142 -20 -182 -8 -40 -17 -112 -20 -160 -4 -48 -13
-115 -20 -148 -7 -33 -16 -87 -20 -120 -6 -59 -28 -188 -61 -370 -9 -49 -22
-129 -29 -177 -7 -47 -15 -90 -19 -96 -3 -5 -12 -55 -21 -110 -8 -55 -19 -111
-24 -123 -4 -13 -12 -51 -15 -84 -4 -33 -16 -93 -27 -134 -10 -41 -19 -86 -19
-99 0 -14 -9 -59 -19 -101 -11 -42 -25 -103 -31 -136 -36 -192 -48 -252 -54
-265 -3 -9 -13 -51 -21 -95 -20 -112 -43 -221 -60 -285 -9 -30 -19 -80 -24
-110 -5 -30 -16 -84 -24 -120 -17 -71 -31 -142 -47 -235 -6 -33 -18 -96 -27
-140 -8 -44 -21 -127 -29 -185 -7 -58 -18 -137 -25 -177 -6 -40 -8 -89 -4
-110 l7 -38 28 32 c20 22 30 47 34 80 3 26 11 77 16 113 6 36 17 112 25 170 8
58 18 117 23 131 6 14 15 67 21 118 7 52 16 101 21 110 4 9 13 50 19 91 5 41
16 93 24 115 8 22 17 68 21 103 4 34 13 79 20 100 7 20 17 64 21 97 4 33 12
68 17 79 9 17 34 133 60 281 5 33 17 82 25 109 8 27 18 86 23 131 5 45 15 106
24 136 8 30 18 79 22 109 3 30 11 66 16 80 11 30 44 183 64 303 8 48 19 98 24
111 5 13 12 53 15 88 4 34 13 86 20 113 8 28 19 95 25 149 7 55 16 109 20 122
5 12 14 66 20 120 6 55 17 131 24 169 8 39 17 111 21 160 3 50 10 109 16 130
5 22 16 128 24 235 8 107 19 251 24 320 13 156 13 385 1 555 -29 402 -40 525
-49 566 -5 24 -14 103 -20 175 -6 72 -15 145 -21 162 -5 18 -14 84 -20 147 -6
63 -16 129 -21 147 -5 18 -14 78 -20 132 -5 55 -16 127 -24 160 -7 34 -16 90
-20 126 -3 36 -12 90 -20 120 -7 30 -16 87 -20 125 -3 39 -14 97 -23 130 -17
63 -17 93 -14 750 1 158 8 329 16 410 8 77 18 203 21 280 4 77 13 183 20 235
8 52 17 140 21 195 3 55 12 109 19 120 15 25 62 213 70 284 3 30 10 62 15 72
5 9 14 50 21 90 6 41 17 97 24 124 7 28 16 73 20 100 4 28 13 73 20 100 8 28
17 75 20 105 4 30 13 80 20 110 8 30 19 100 25 155 6 55 15 116 20 135 5 19
14 98 20 175 6 77 15 156 20 175 5 19 14 103 20 185 6 83 15 166 20 185 6 19
15 103 20 185 6 83 17 193 25 245 8 52 17 147 20 210 3 63 12 165 20 225 14
110 28 383 45 890 13 402 -17 1528 -45 1695 -8 47 -15 103 -15 125 0 22 -9 72
-19 110 -11 39 -22 102 -26 140 -4 39 -15 107 -26 151 -10 45 -19 92 -19 105
0 22 -13 87 -57 269 -8 36 -19 90 -24 120 -5 30 -14 67 -20 83 -6 15 -17 55
-24 90 -13 60 -25 107 -66 252 -68 241 -136 437 -203 580 -40 85 -130 303
-163 395 -58 160 -76 208 -88 235 -8 17 -18 46 -24 65 -14 48 -50 151 -61 175
-13 27 -87 248 -105 310 -8 28 -26 91 -40 140 -14 50 -30 117 -36 150 -6 33
-17 83 -25 112 -8 28 -22 127 -30 220 -13 136 -14 193 -5 298 6 72 14 164 17
205 3 41 10 91 15 111 5 20 15 81 23 135 15 105 40 243 57 309 5 22 16 86 24
141 8 56 19 112 24 126 5 13 12 51 15 84 8 67 38 214 67 321 10 40 19 81 19
90 0 10 8 47 19 83 22 74 46 160 66 240 8 30 21 78 30 105 9 28 25 82 37 120
51 169 62 203 79 250 11 28 19 56 19 63 0 7 8 34 19 60 10 26 31 88 46 137 15
50 33 106 40 125 7 19 25 76 40 125 15 50 36 116 46 148 11 31 19 65 19 75 0
11 9 45 20 77 11 32 20 70 20 85 0 15 8 38 18 51 35 45 68 123 109 254 8 28
19 55 23 60 4 6 11 26 14 45 4 19 19 69 33 110 14 41 27 82 30 90 8 25 20 -18
32 -116 6 -49 15 -104 20 -121 5 -18 12 -74 16 -125 3 -51 13 -142 22 -201 17
-118 14 -345 -7 -532 -14 -123 -14 -874 -1 -965 6 -36 15 -117 21 -180 6 -63
20 -164 31 -225 10 -60 19 -123 19 -138 0 -16 9 -72 19 -125 11 -53 22 -119
26 -147 4 -27 13 -72 20 -100 8 -27 17 -79 21 -115 3 -36 10 -76 15 -89 5 -13
16 -71 24 -129 8 -57 20 -111 26 -118 6 -8 15 -63 19 -123 7 -84 13 -116 28
-138 22 -31 37 -112 33 -188 -9 -221 -10 -1539 -1 -1685 25 -401 31 -477 40
-511 6 -20 15 -83 20 -140 6 -57 17 -131 24 -164 8 -33 17 -91 21 -130 3 -38
12 -92 20 -120 7 -27 16 -77 20 -110 4 -33 13 -82 20 -110 8 -27 17 -75 20
-105 4 -30 13 -77 20 -105 8 -27 19 -86 25 -130 5 -44 17 -102 25 -129 8 -27
15 -61 15 -75 0 -15 7 -54 16 -86 8 -33 22 -94 29 -135 30 -161 49 -242 95
-395 19 -63 23 -257 7 -320 -8 -33 -18 -89 -22 -125 -3 -36 -12 -90 -20 -120
-7 -30 -17 -86 -20 -125 -4 -38 -14 -97 -22 -129 -13 -52 -34 -441 -37 -671
-1 -85 22 -261 38 -293 7 -15 17 -47 21 -71 17 -103 93 -201 154 -201 49 0 51
-9 51 -239 0 -119 5 -234 10 -255 6 -28 27 -57 71 -103 59 -58 67 -63 108 -63
51 0 89 -32 106 -90 11 -35 11 -35 76 -38 65 -3 66 -2 93 32 16 21 31 59 37
93 13 71 17 77 35 62 8 -6 45 -14 82 -16 l67 -5 29 38 c16 20 33 57 38 82 10
56 29 78 73 86 47 9 53 24 16 37 -17 6 -36 19 -41 29 -15 28 -12 269 4 347 8
37 17 109 21 158 3 50 15 127 26 171 34 146 21 226 -31 179 -13 -12 -20 -37
-25 -83 -3 -37 -13 -89 -21 -116 -9 -27 -19 -112 -25 -190 -5 -78 -14 -186
-19 -241 -6 -55 -15 -152 -19 -215 -11 -147 -36 -210 -82 -210 -22 0 -41 10
-63 33 l-31 32 6 375 c5 291 10 389 23 440 16 66 21 152 10 163 -10 9 -42 -11
-54 -33 -25 -47 -42 -246 -50 -600 -6 -277 -12 -384 -24 -445 -31 -146 -34
-155 -60 -155 -27 0 -46 20 -70 76 -14 33 -16 59 -12 145 3 57 9 271 15 474 7
281 13 388 26 445 23 104 29 166 17 174 -6 3 -22 2 -35 -3 -21 -8 -27 -19 -32
-58 -3 -26 -13 -77 -22 -113 -14 -53 -18 -133 -21 -435 l-3 -370 -30 -91 c-28
-82 -33 -91 -53 -87 -15 3 -32 24 -54 67 -30 59 -32 70 -32 167 0 57 5 131 10
164 7 41 7 99 -1 185 -6 69 -12 235 -13 370 -1 184 -4 251 -14 268 -11 18 -11
34 -3 70 15 67 25 234 17 286 -7 47 -36 70 -60 47 -8 -9 -12 -140 -16 -454
l-5 -442 -23 -32 c-13 -18 -27 -33 -32 -33 -5 0 -20 15 -34 33 -20 26 -31 61
-47 153 -19 110 -20 142 -13 434 8 370 8 429 -1 492 -4 28 -2 61 4 79 6 17 15
70 21 118 5 47 17 115 25 151 22 96 48 295 49 375 0 65 -22 176 -46 235 -11
26 -37 138 -62 270 -8 41 -22 102 -30 135 -9 32 -16 69 -16 82 0 12 -9 60 -19
105 -23 102 -50 237 -66 343 -7 44 -17 91 -23 105 -5 14 -13 56 -17 95 -4 38
-11 80 -17 94 -5 14 -15 74 -23 134 -8 60 -19 125 -24 146 -6 20 -15 84 -21
142 -6 58 -15 120 -20 138 -5 19 -14 99 -20 180 -6 80 -16 173 -22 206 -7 39
-13 399 -17 1023 -6 906 -7 964 -24 977 -13 10 -18 30 -21 91 -2 52 -9 91 -21
114 -13 25 -20 69 -26 160 -3 69 -11 139 -17 155 -6 17 -16 69 -21 117 -6 49
-15 96 -20 106 -5 10 -13 47 -16 82 -4 36 -13 90 -21 120 -7 30 -18 98 -24
150 -6 52 -15 109 -20 125 -6 17 -17 95 -25 175 -8 80 -19 170 -25 200 -5 30
-12 199 -16 375 -7 386 7 777 32 845 13 37 15 71 11 190 -5 139 -16 212 -57
400 -10 47 -21 130 -25 185 -4 55 -13 129 -21 165 -8 36 -18 123 -21 194 -5
102 -10 137 -27 169 -26 51 -43 57 -57 20z"/>
<path d="M11773 21838 c2 -24 14 -74 26 -113 12 -38 28 -97 35 -130 7 -33 18
-76 24 -95 6 -19 16 -73 22 -120 5 -47 14 -100 20 -119 5 -18 14 -99 20 -180
6 -80 15 -177 20 -216 12 -92 12 -486 0 -600 -5 -49 -14 -169 -20 -265 -6 -96
-15 -202 -20 -235 -5 -33 -14 -126 -20 -205 -6 -80 -17 -181 -25 -225 -7 -44
-17 -114 -20 -155 -3 -41 -12 -109 -20 -150 -8 -41 -17 -122 -20 -180 -3 -58
-13 -145 -21 -195 -34 -200 -34 -969 1 -1021 8 -13 15 -31 15 -41 1 -10 8 -36
16 -58 8 -22 21 -62 29 -90 7 -27 25 -81 40 -120 53 -142 125 -377 125 -409 0
-12 9 -52 19 -91 11 -38 24 -101 30 -140 5 -38 17 -112 27 -163 12 -72 15
-119 9 -199 -6 -92 -11 -114 -40 -169 -20 -38 -38 -91 -44 -131 -6 -38 -19
-102 -30 -144 -15 -58 -18 -95 -14 -153 4 -55 3 -76 -6 -76 -19 0 -32 -50 -25
-98 8 -53 20 -40 30 33 3 27 11 53 16 56 6 4 16 35 23 70 19 95 44 196 66 264
10 33 19 66 19 74 0 8 8 33 19 55 27 58 48 130 62 211 14 80 7 282 -11 314 -6
12 -17 54 -25 94 -13 71 -36 175 -56 252 -6 22 -15 63 -21 90 -18 86 -61 217
-85 260 -12 23 -41 93 -64 156 -22 63 -47 130 -54 149 -13 37 -34 436 -28 550
19 381 25 481 33 515 5 22 14 103 20 180 6 77 17 169 25 205 7 36 17 108 20
160 4 52 13 125 21 161 7 37 18 142 24 235 6 93 15 187 20 209 5 22 17 201 27
397 16 335 16 374 0 645 -10 158 -21 304 -27 323 -5 19 -16 85 -24 145 -8 61
-20 128 -25 150 -6 22 -17 69 -26 105 -33 137 -44 170 -66 211 -13 23 -35 46
-48 51 -22 8 -23 7 -18 -34z"/>
<path d="M6862 17312 c-15 -15 -20 -41 -26 -119 -4 -56 -11 -116 -17 -134 -6
-19 -16 -68 -24 -109 -7 -41 -20 -104 -28 -140 -17 -71 -31 -144 -47 -230 -24
-142 -31 -180 -41 -245 -6 -38 -19 -115 -29 -170 -10 -55 -22 -134 -25 -175
-4 -41 -13 -104 -20 -140 -7 -36 -16 -112 -20 -170 -4 -58 -13 -134 -20 -170
-7 -36 -16 -105 -20 -155 -4 -49 -13 -117 -20 -150 -8 -33 -17 -100 -21 -150
-3 -49 -15 -117 -25 -150 -10 -33 -19 -78 -19 -100 0 -22 -9 -72 -20 -110 -11
-38 -20 -81 -20 -96 0 -14 -9 -59 -19 -100 -10 -41 -22 -101 -26 -134 -4 -33
-11 -67 -16 -76 -4 -9 -13 -47 -19 -85 -10 -62 -21 -117 -60 -289 -6 -27 -18
-86 -25 -130 -8 -44 -19 -93 -25 -110 -6 -16 -15 -61 -20 -98 -6 -38 -16 -90
-24 -115 -14 -50 -41 -179 -61 -304 -7 -42 -16 -82 -20 -87 -3 -6 -12 -45 -20
-88 -8 -43 -22 -103 -30 -133 -8 -30 -15 -67 -15 -82 0 -15 -9 -50 -20 -78
-11 -28 -20 -67 -20 -86 0 -19 -9 -57 -21 -84 -19 -45 -20 -55 -9 -159 6 -62
8 -117 4 -123 -4 -6 -10 -126 -14 -267 -9 -290 -32 -462 -97 -711 -8 -30 -20
-82 -28 -115 -8 -33 -26 -100 -40 -150 -15 -49 -33 -116 -40 -149 -8 -32 -18
-70 -24 -85 -6 -14 -17 -53 -25 -86 -8 -33 -24 -94 -36 -135 -21 -70 -21 -82
-11 -190 7 -63 18 -138 26 -166 8 -28 19 -84 25 -125 6 -41 16 -101 24 -134 8
-33 17 -91 21 -130 4 -38 11 -80 17 -95 5 -14 18 -92 29 -175 26 -209 34 -261
52 -330 9 -33 19 -98 22 -145 4 -47 13 -112 20 -145 7 -33 16 -89 20 -125 4
-35 13 -81 20 -101 33 -94 44 -812 14 -974 -5 -27 -18 -113 -28 -190 -11 -77
-25 -156 -30 -175 -5 -19 -12 -67 -16 -106 -3 -39 -12 -91 -19 -116 -8 -24
-17 -76 -21 -114 -4 -38 -14 -85 -21 -105 -7 -20 -15 -63 -19 -95 -4 -33 -13
-79 -20 -104 -8 -25 -17 -67 -20 -95 -4 -27 -16 -83 -26 -124 -10 -41 -19 -85
-19 -98 0 -12 -7 -42 -15 -67 -9 -25 -22 -78 -30 -118 -25 -127 -55 -259 -61
-269 -3 -6 -12 -45 -19 -87 -22 -128 -45 -243 -61 -313 -8 -36 -19 -121 -25
-187 -5 -67 -14 -134 -20 -149 -17 -45 -52 -280 -70 -468 -6 -66 -15 -154 -19
-195 -11 -94 -10 -591 0 -725 4 -55 13 -120 19 -145 6 -25 21 -88 32 -140 12
-52 28 -117 36 -145 9 -27 21 -75 28 -105 14 -58 48 -161 65 -195 19 -40 50
-151 56 -205 4 -30 13 -65 20 -77 8 -12 18 -53 24 -90 5 -37 14 -84 19 -103
18 -68 51 -368 60 -548 5 -101 13 -188 18 -193 6 -6 16 -2 27 10 17 19 18 34
7 248 -13 257 -31 385 -106 758 -59 293 -107 474 -135 514 -11 14 -28 64 -39
111 -12 47 -29 117 -38 155 -23 90 -30 532 -13 815 30 521 34 553 90 750 10
36 22 92 25 125 4 33 10 76 15 95 5 19 14 82 20 140 11 103 40 275 61 355 6
22 17 69 24 105 7 36 19 92 28 125 13 56 26 110 76 340 11 50 23 110 26 135 4
25 12 65 20 90 7 25 16 72 20 104 4 33 11 71 16 85 6 14 16 71 24 127 8 56 19
112 24 125 5 13 12 58 15 99 4 41 14 100 21 132 8 31 19 103 25 160 6 57 15
120 21 139 7 21 13 162 16 374 4 270 1 364 -11 455 -8 63 -20 151 -26 195 -5
44 -16 105 -24 135 -8 30 -17 96 -21 145 -4 50 -13 110 -20 135 -8 25 -16 91
-19 148 -4 57 -13 119 -21 138 -8 20 -17 66 -21 102 -3 37 -12 90 -19 117 -7
28 -18 92 -24 142 -6 51 -15 103 -20 116 -5 13 -14 64 -20 115 -6 50 -16 103
-21 117 -13 35 -43 212 -42 255 0 47 28 215 38 231 4 7 15 44 25 83 10 39 27
103 38 141 11 39 25 90 32 115 6 25 20 74 30 110 11 36 24 89 29 118 5 29 14
60 19 70 5 9 14 49 20 89 6 39 15 83 20 96 6 14 15 72 21 129 6 56 16 119 22
138 6 21 12 155 14 335 3 338 11 469 29 505 7 14 16 52 20 84 4 33 11 71 17
85 5 14 16 58 23 96 29 153 46 232 60 280 8 28 17 75 21 105 4 30 12 69 19 85
7 17 15 57 19 90 4 33 16 93 27 134 10 41 19 84 19 95 0 12 8 59 19 106 40
167 61 266 70 328 6 34 13 67 16 73 4 5 13 45 20 87 7 42 21 113 30 157 19 94
49 237 65 315 33 160 61 326 70 415 6 55 17 132 25 170 7 39 16 106 20 150 3
44 12 118 20 165 7 47 17 126 20 175 3 50 12 124 20 165 8 41 16 100 20 130 3
30 14 105 25 165 10 61 23 137 28 170 23 142 35 205 52 285 11 47 22 105 25
130 8 56 56 193 64 185 6 -6 20 -67 51 -220 6 -33 20 -98 30 -145 10 -47 21
-114 25 -150 4 -36 11 -75 16 -88 5 -12 14 -64 20 -115 6 -50 17 -117 24 -147
7 -30 16 -91 20 -135 3 -44 13 -116 20 -160 8 -44 19 -138 25 -209 6 -71 14
-146 19 -165 6 -20 15 -86 20 -146 6 -61 15 -125 20 -142 13 -44 23 -160 26
-300 2 -78 8 -132 18 -158 9 -22 16 -54 17 -71 0 -16 9 -64 19 -105 11 -41 23
-101 27 -134 4 -33 12 -76 19 -95 7 -20 16 -60 19 -90 4 -30 13 -77 21 -105 7
-27 16 -68 19 -90 4 -22 15 -78 25 -125 20 -88 29 -133 60 -285 19 -94 30
-144 61 -285 11 -47 22 -107 26 -135 4 -27 13 -66 20 -86 7 -20 16 -63 19 -95
4 -33 12 -70 17 -84 6 -14 16 -56 23 -95 19 -101 43 -201 64 -270 11 -33 22
-88 26 -123 8 -79 13 -92 35 -92 40 0 34 103 -17 325 -9 39 -22 99 -29 135
-27 135 -45 217 -59 270 -8 30 -17 73 -20 95 -3 22 -14 78 -24 125 -19 83 -32
146 -52 245 -10 53 -36 173 -68 320 -11 50 -23 110 -26 135 -4 25 -13 65 -20
90 -8 25 -17 72 -21 105 -4 33 -13 76 -20 96 -7 20 -15 63 -19 95 -4 33 -13
79 -20 104 -8 25 -19 77 -24 117 -6 39 -16 84 -22 100 -6 15 -13 73 -15 128
-5 145 -13 238 -24 274 -5 17 -14 84 -20 149 -6 64 -15 133 -21 152 -5 19 -14
91 -20 160 -5 69 -16 161 -24 205 -8 44 -17 118 -20 165 -4 47 -13 112 -20
145 -8 33 -19 102 -25 152 -6 51 -14 103 -19 115 -5 13 -12 52 -15 88 -4 36
-16 106 -26 155 -10 50 -23 115 -29 145 -5 30 -15 78 -21 105 -42 184 -51 231
-60 325 -15 135 -17 145 -36 164 -20 21 -30 20 -52 -2z"/>
<path d="M7719 12273 c-17 -43 -5 -495 15 -623 42 -257 75 -408 127 -595 54
-192 57 -202 89 -325 7 -25 20 -72 30 -105 10 -33 21 -78 25 -100 4 -21 13
-52 21 -68 13 -25 13 -34 0 -80 -8 -29 -18 -77 -22 -107 -3 -30 -15 -88 -25
-129 -10 -41 -19 -89 -19 -105 0 -17 -7 -60 -16 -96 -8 -36 -20 -100 -25 -143
-5 -43 -16 -104 -24 -135 -7 -31 -16 -88 -20 -127 -4 -38 -13 -95 -20 -125 -7
-30 -16 -88 -20 -129 -4 -41 -11 -88 -16 -105 -5 -17 -16 -90 -24 -163 -8 -72
-19 -143 -25 -157 -5 -14 -12 -60 -16 -103 -3 -43 -13 -109 -21 -148 -31 -150
-34 -820 -4 -924 6 -18 15 -79 21 -135 6 -55 18 -128 25 -161 7 -33 16 -89 20
-125 4 -36 13 -90 20 -120 7 -30 16 -80 20 -110 3 -30 12 -77 20 -105 7 -27
16 -72 20 -100 3 -27 15 -88 25 -135 10 -47 23 -110 30 -140 46 -225 84 -398
97 -440 6 -19 14 -57 18 -85 4 -27 11 -58 17 -68 5 -10 15 -55 23 -100 8 -45
21 -113 29 -152 9 -38 16 -88 16 -110 1 -22 8 -58 16 -80 8 -22 17 -71 20
-110 3 -38 13 -106 24 -150 10 -44 23 -109 29 -145 6 -36 15 -85 20 -110 32
-142 46 -1141 20 -1340 -14 -107 -52 -253 -78 -305 -12 -21 -21 -49 -21 -61 0
-13 -5 -35 -11 -51 -12 -31 -30 -240 -22 -260 10 -26 22 -12 32 39 7 28 16 57
21 63 12 15 70 192 70 214 0 9 9 43 20 76 11 33 29 105 41 160 11 55 26 118
31 140 25 96 37 651 18 830 -4 44 -13 148 -20 230 -11 149 -30 280 -56 405 -8
36 -21 121 -29 190 -9 69 -20 139 -25 155 -5 17 -15 66 -21 110 -5 44 -16 103
-24 130 -8 28 -17 75 -21 105 -3 30 -11 66 -16 80 -10 27 -40 161 -63 280 -8
41 -19 85 -25 98 -5 13 -15 55 -21 95 -6 40 -15 80 -20 89 -5 9 -14 52 -20 95
-6 43 -16 96 -23 118 -8 22 -17 67 -20 100 -4 33 -13 80 -21 105 -7 25 -16 72
-20 105 -4 33 -13 83 -20 110 -8 28 -19 92 -25 142 -6 51 -14 103 -19 116 -5
12 -14 70 -20 128 -6 58 -16 121 -22 140 -37 126 -36 881 1 1009 6 19 15 78
21 130 6 52 17 122 24 155 7 33 16 97 20 142 3 46 11 97 16 115 5 18 16 86 25
152 8 66 17 123 20 128 3 4 11 52 18 105 8 54 21 139 30 188 9 50 26 144 37
210 11 66 30 161 42 210 30 126 30 331 0 425 -11 36 -26 85 -32 110 -7 25 -21
77 -31 115 -11 39 -26 97 -35 130 -8 33 -22 80 -30 105 -8 25 -17 63 -21 85
-4 22 -11 48 -16 57 -10 21 -45 176 -59 268 -6 36 -17 99 -25 140 -8 41 -19
176 -24 300 -9 211 -23 361 -36 381 -10 17 -24 9 -35 -18z"/>
<path d="M9165 3589 c-24 -74 87 -414 246 -756 51 -110 85 -186 113 -253 47
-109 66 -153 120 -272 14 -31 26 -59 26 -62 0 -6 78 -174 118 -254 26 -50 51
-70 72 -57 18 11 11 34 -49 158 -112 233 -146 308 -258 572 -14 33 -34 78 -44
101 -10 22 -19 43 -19 47 0 3 -16 41 -36 84 -49 105 -67 146 -99 223 -15 36
-33 80 -41 98 -24 56 -55 153 -80 252 -28 109 -40 140 -53 140 -5 0 -13 -9
-16 -21z"/>
<path d="M8092 2888 c-7 -36 -12 -79 -12 -95 0 -17 -6 -46 -14 -64 -8 -19 -19
-72 -25 -119 -6 -47 -16 -101 -21 -120 -6 -19 -15 -98 -20 -175 -6 -77 -15
-178 -21 -225 -6 -47 -9 -119 -7 -160 3 -69 5 -75 25 -78 29 -4 30 2 43 238 6
107 22 271 36 365 32 216 50 447 38 476 -8 18 -12 11 -22 -43z"/>
<path d="M3930 1796 c0 -26 41 -56 165 -121 124 -64 425 -174 480 -175 11 -1
38 -7 60 -15 122 -45 708 -64 1009 -33 137 14 161 20 182 39 49 46 24 51 -147
28 -200 -27 -659 -27 -876 1 -138 18 -293 51 -373 80 -179 65 -323 131 -402
187 -58 40 -98 44 -98 9z"/>
<path d="M9770 1803 c-14 -9 -37 -24 -51 -34 -32 -21 -170 -92 -224 -114 -194
-80 -323 -111 -632 -151 -23 -3 -174 -5 -335 -5 -218 0 -322 4 -408 16 -123
18 -177 21 -188 11 -3 -4 5 -18 19 -32 23 -23 40 -26 180 -42 298 -32 780 -18
999 29 209 45 440 132 613 231 78 44 87 52 87 79 0 34 -20 38 -60 12z"/>
</g>
</svg>
